<?xml version="1.0" encoding="iso-8859-1"?>
<!-- Generator: Adobe Illustrator 19.0.0, SVG Export Plug-In . SVG Version: 6.00 Build 0)  -->
<svg version="1.1" id="Layer_1" xmlns="http://www.w3.org/2000/svg" xmlns:xlink="http://www.w3.org/1999/xlink" x="0px" y="0px"
	 viewBox="0 0 512.057 512.057" style="enable-background:new 0 0 512.057 512.057;" xml:space="preserve">
<path style="fill:#FF7069;" d="M256.028,0c141.4,0,256.028,114.629,256.028,256.028S397.428,512.057,256.028,512.057
	S0,397.428,0,256.028S114.629,0,256.028,0z"/>
<path style="fill:#ECF0F1;" d="M97.443,180.422h320.631c8.905,0,21.95,10.153,25.58,20.419l37.661,106.291v61.994H34.201h-3.517
	v-61.994l41.178-106.291C75.833,190.632,88.538,180.422,97.443,180.422z"/>
<polygon style="fill:#E4E7ED;" points="256.028,369.126 255.631,369.126 34.201,369.126 30.685,369.126 30.685,307.132 
	30.685,307.132 255.631,307.132 255.631,307.132 256.028,307.132 480.918,307.132 480.918,369.126 259.091,369.126 "/>
<g>
	<path style="fill:#6C7678;" d="M134.253,191.936h82.356c18.887,0,18.944,17.469,4.991,17.469h-92.962
		c-13.839,0-11.854-17.469,5.558-17.469H134.253z"/>
	<path style="fill:#6C7678;" d="M300.326,332.769h88.481c3.8,0,6.92,3.12,6.92,6.92l0,0c0,3.8-3.12,6.92-6.92,6.92h-88.481
		c-3.8,0-6.92-3.12-6.92-6.92l0,0C293.406,335.888,296.526,332.769,300.326,332.769z"/>
</g>
<polygon style="fill:#596366;" points="326.927,157.565 359.937,157.565 359.937,180.422 326.927,180.422 "/>
<path style="fill:#ECF0F1;" d="M258.751,96.365h169.476c7.203,0,13.102,5.899,13.102,13.102v34.655
	c0,7.203-5.899,13.102-13.102,13.102H258.751c-7.203,0-13.102-5.899-13.102-13.102v-34.655
	C245.649,102.264,251.548,96.365,258.751,96.365z"/>
<path style="fill:#6B7F9E;" d="M263.629,107.369h159.607c3.517,0,6.352,2.836,6.352,6.353v26.147c0,3.517-2.836,6.353-6.352,6.353
	H263.629c-3.517,0-6.352-2.836-6.352-6.353v-26.147C257.276,110.204,260.112,107.369,263.629,107.369z"/>
<path style="fill:#6C7678;" d="M332.258,194.148h22.404c2.099,0,3.8,1.702,3.8,3.8v14.293c0,2.099-1.702,3.8-3.8,3.8h-22.404
	c-2.099,0-3.8-1.702-3.8-3.8v-14.293C328.458,195.85,330.16,194.148,332.258,194.148z M293.122,194.148h22.404
	c2.099,0,3.8,1.702,3.8,3.8v14.293c0,2.099-1.702,3.8-3.8,3.8h-22.404c-2.099,0-3.8-1.702-3.8-3.8v-14.293
	C289.322,195.85,291.024,194.148,293.122,194.148z M371.338,194.148h22.404c2.099,0,3.8,1.702,3.8,3.8v14.293
	c0,2.099-1.702,3.8-3.8,3.8h-22.404c-2.099,0-3.8-1.702-3.8-3.8v-14.293C367.537,195.85,369.239,194.148,371.338,194.148z"/>
<g>
	<path style="fill:#FFFFFF;" d="M90.523,75.152l22.177,9.642l5.729-11.23l13.045,8.962l5.672-8.791l13.215,8.054l5.502-8.678
		l13.159,9.132l4.14-10.833l12.762,8.565l6.012-7.941c22.858,19.341,36.016,102.037,31.592,129.659h-99.315
		c0-43.447-5.048-90.069-33.634-126.596L90.523,75.152z"/>
	<path style="fill:#FFFFFF;" d="M351.316,121.378c0-1.078,0.284-2.155,0.908-3.12s1.475-1.758,2.609-2.325s2.496-0.851,4.084-0.851
		c1.305,0,2.439,0.17,3.46,0.51c0.964,0.34,1.815,0.794,2.496,1.418c0.681,0.624,1.134,1.305,1.475,2.042
		c0.34,0.737,0.454,1.531,0.454,2.382c0,1.078-0.284,2.042-0.851,2.893c-0.567,0.851-1.361,1.531-2.496,2.099
		c0.964,0.34,1.702,0.851,2.325,1.418s1.078,1.248,1.418,2.042c0.34,0.794,0.454,1.645,0.454,2.552c0,1.361-0.34,2.666-1.021,3.743
		c-0.681,1.134-1.645,1.985-2.949,2.666c-1.305,0.624-2.836,0.964-4.594,0.964c-1.815,0-3.403-0.34-4.708-0.964
		c-1.305-0.624-2.269-1.531-2.949-2.609c-0.681-1.134-0.964-2.382-0.964-3.743c0-2.949,1.418-4.991,4.197-6.069
		c-2.269-1.078-3.403-2.722-3.403-4.991L351.316,121.378z M363.113,132.268c0-0.851-0.17-1.588-0.51-2.212
		c-0.34-0.624-0.851-1.134-1.475-1.475c-0.624-0.34-1.361-0.51-2.155-0.51c-1.134,0-2.042,0.397-2.836,1.134
		c-0.737,0.737-1.134,1.815-1.134,3.12c0,0.851,0.17,1.645,0.51,2.269c0.34,0.681,0.851,1.134,1.475,1.531
		c0.624,0.34,1.305,0.51,2.042,0.51c0.794,0,1.475-0.17,2.099-0.567c0.624-0.34,1.078-0.851,1.418-1.531s0.51-1.418,0.51-2.269
		H363.113z M358.973,118.202c-1.021,0-1.872,0.34-2.496,0.964c-0.624,0.624-0.964,1.475-0.964,2.496c0,0.908,0.34,1.702,0.964,2.325
		c0.624,0.624,1.475,0.908,2.496,0.908c0.51,0,0.964-0.057,1.418-0.227c0.397-0.17,0.794-0.397,1.078-0.681
		c0.284-0.284,0.567-0.624,0.681-1.021c0.17-0.397,0.227-0.851,0.227-1.305c0-0.624-0.17-1.248-0.454-1.758
		s-0.681-0.908-1.248-1.248c-0.51-0.284-1.134-0.454-1.815-0.454H358.973z M374.4,139.812c-0.681,0-1.248-0.227-1.758-0.681
		s-0.737-1.078-0.737-1.872c0-0.681,0.227-1.248,0.737-1.758c0.454-0.51,1.078-0.737,1.758-0.737s1.305,0.227,1.758,0.737
		c0.51,0.454,0.737,1.078,0.737,1.758c0,0.794-0.227,1.361-0.737,1.815c-0.51,0.454-1.078,0.681-1.702,0.681L374.4,139.812z
		 M395.273,119.336h-7.827l-0.964,5.332c1.531-0.851,3.006-1.248,4.311-1.248c1.078,0,2.042,0.17,2.949,0.567
		c0.908,0.397,1.702,0.964,2.382,1.645s1.248,1.531,1.645,2.496c0.397,0.964,0.567,1.985,0.567,3.063
		c0,1.588-0.34,3.063-1.078,4.367c-0.737,1.305-1.758,2.325-3.063,3.12c-1.361,0.794-2.893,1.134-4.651,1.134
		c-1.985,0-3.573-0.34-4.764-1.078c-1.248-0.737-2.099-1.531-2.609-2.496c-0.51-0.908-0.737-1.758-0.737-2.439
		c0-0.454,0.17-0.851,0.51-1.248c0.34-0.397,0.794-0.567,1.361-0.567c0.908,0,1.588,0.51,2.042,1.588
		c0.454,0.964,1.021,1.758,1.758,2.269c0.737,0.567,1.588,0.794,2.496,0.794c0.851,0,1.588-0.227,2.212-0.681
		s1.134-1.021,1.475-1.815c0.34-0.737,0.51-1.645,0.51-2.609c0-1.078-0.17-1.928-0.567-2.723c-0.34-0.737-0.851-1.305-1.475-1.702
		c-0.624-0.34-1.305-0.567-2.099-0.567c-0.964,0-1.645,0.113-2.042,0.34s-0.964,0.624-1.758,1.191
		c-0.737,0.567-1.361,0.851-1.872,0.851s-1.021-0.17-1.418-0.567c-0.397-0.397-0.624-0.851-0.624-1.305
		c0-0.057,0.057-0.397,0.17-1.134l1.361-7.884c0.17-0.964,0.454-1.645,0.851-2.042c0.397-0.454,1.078-0.624,2.042-0.624h8.678
		c1.702,0,2.552,0.681,2.552,1.985c0,0.567-0.227,1.021-0.624,1.361c-0.397,0.34-1.021,0.51-1.815,0.51L395.273,119.336z
		 M415.351,119.336h-7.827l-0.964,5.332c1.531-0.851,3.006-1.248,4.311-1.248c1.078,0,2.042,0.17,2.949,0.567
		c0.908,0.397,1.702,0.964,2.382,1.645c0.681,0.681,1.248,1.531,1.645,2.496c0.397,0.964,0.567,1.985,0.567,3.063
		c0,1.588-0.34,3.063-1.078,4.367c-0.737,1.305-1.758,2.325-3.063,3.12c-1.361,0.794-2.893,1.134-4.651,1.134
		c-1.985,0-3.573-0.34-4.764-1.078c-1.248-0.737-2.099-1.531-2.609-2.496c-0.51-0.908-0.737-1.758-0.737-2.439
		c0-0.454,0.17-0.851,0.51-1.248c0.34-0.397,0.794-0.567,1.361-0.567c0.908,0,1.588,0.51,2.042,1.588
		c0.454,0.964,1.021,1.758,1.758,2.269c0.737,0.567,1.588,0.794,2.496,0.794c0.851,0,1.588-0.227,2.212-0.681
		s1.134-1.021,1.475-1.815c0.34-0.737,0.51-1.645,0.51-2.609c0-1.078-0.17-1.928-0.567-2.723c-0.397-0.737-0.851-1.305-1.475-1.702
		c-0.624-0.34-1.305-0.567-2.099-0.567c-0.964,0-1.645,0.113-2.042,0.34s-0.964,0.624-1.758,1.191
		c-0.737,0.567-1.361,0.851-1.872,0.851c-0.567,0-1.021-0.17-1.418-0.567c-0.397-0.397-0.624-0.851-0.624-1.305
		c0-0.057,0.057-0.397,0.17-1.134l1.361-7.884c0.17-0.964,0.454-1.645,0.851-2.042c0.397-0.454,1.078-0.624,2.042-0.624h8.678
		c1.702,0,2.552,0.681,2.552,1.985c0,0.567-0.227,1.021-0.624,1.361c-0.397,0.34-1.021,0.51-1.815,0.51L415.351,119.336z"/>
</g>
<path style="fill:#C6CBD6;" d="M30.685,369.126h450.63v8.565c-43.276,80.03-127.957,134.367-225.287,134.367
	S74.018,457.72,30.742,377.69v-8.565H30.685z"/>
<g>
	<polygon style="fill:#6C7678;" points="112.757,387.389 408.148,387.389 408.148,446.603 112.757,446.603 	"/>
	<path style="fill:#6C7678;" d="M205.265,269.13c6.976,0,12.138,4.027,11.457,8.962c-0.681,4.935-6.92,8.962-13.896,8.962
		c-6.976,0-12.138-4.027-11.457-8.962C192.05,273.101,198.289,269.13,205.265,269.13z M139.358,220.522
		c6.976,0,12.138,4.027,11.457,8.962c-0.681,4.935-6.92,8.962-13.896,8.962s-12.138-4.027-11.457-8.962
		S132.382,220.522,139.358,220.522z M176.452,220.522c6.976,0,12.138,4.027,11.457,8.962c-0.681,4.935-6.92,8.962-13.896,8.962
		c-6.976,0-12.138-4.027-11.457-8.962C163.237,224.549,169.476,220.522,176.452,220.522z M211.844,220.522
		c6.976,0,12.138,4.027,11.457,8.962c-0.681,4.935-6.92,8.962-13.896,8.962s-12.138-4.027-11.457-8.962
		S204.868,220.522,211.844,220.522z M208.555,244.855c6.976,0,12.138,4.027,11.457,8.962c-0.681,4.935-6.92,8.962-13.896,8.962
		s-12.138-4.027-11.457-8.962S201.578,244.855,208.555,244.855z M173.162,244.855c6.976,0,12.138,4.027,11.457,8.962
		s-6.92,8.962-13.896,8.962c-7.033,0-12.138-4.027-11.457-8.962C159.947,248.882,166.186,244.855,173.162,244.855z M136.068,244.855
		c7.033,0,12.138,4.027,11.457,8.962c-0.681,4.935-6.92,8.962-13.896,8.962c-6.976,0-12.138-4.027-11.457-8.962
		S129.092,244.855,136.068,244.855z M132.779,269.187c6.976,0,12.138,4.027,11.457,8.962c-0.681,4.935-6.92,8.962-13.896,8.962
		c-6.976,0-12.138-4.027-11.457-8.962C119.563,273.157,125.802,269.187,132.779,269.187z M169.873,269.187
		c7.033,0,12.138,4.027,11.457,8.962c-0.681,4.935-6.92,8.962-13.896,8.962s-12.138-4.027-11.457-8.962
		C156.657,273.157,162.896,269.187,169.873,269.187z"/>
	<path style="fill:#6C7678;" d="M292.158,230.789h6.012c2.723,0,4.935,2.212,4.935,4.935v6.012c0,2.722-2.212,4.935-4.935,4.935
		h-6.012c-2.723,0-4.935-2.212-4.935-4.935v-6.012C287.224,233.001,289.436,230.789,292.158,230.789z"/>
	<path style="fill:#6C7678;" d="M310.535,230.789h6.012c2.723,0,4.935,2.212,4.935,4.935v6.012c0,2.722-2.212,4.935-4.935,4.935
		h-6.012c-2.723,0-4.935-2.212-4.935-4.935v-6.012C305.601,233.001,307.813,230.789,310.535,230.789z"/>
	<path style="fill:#6C7678;" d="M292.158,249.789h6.012c2.723,0,4.935,2.212,4.935,4.935v6.012c0,2.723-2.212,4.935-4.935,4.935
		h-6.012c-2.723,0-4.935-2.212-4.935-4.935v-6.012C287.224,252.001,289.436,249.789,292.158,249.789z"/>
	<path style="fill:#6C7678;" d="M310.535,249.789h6.012c2.723,0,4.935,2.212,4.935,4.935v6.012c0,2.723-2.212,4.935-4.935,4.935
		h-6.012c-2.723,0-4.935-2.212-4.935-4.935v-6.012C305.601,252.001,307.813,249.789,310.535,249.789z"/>
	<path style="fill:#6C7678;" d="M292.158,268.847h6.012c2.723,0,4.935,2.212,4.935,4.935v6.012c0,2.723-2.212,4.935-4.935,4.935
		h-6.012c-2.723,0-4.935-2.212-4.935-4.935v-6.012C287.224,271.059,289.436,268.847,292.158,268.847z"/>
	<path style="fill:#6C7678;" d="M310.535,268.847h6.012c2.723,0,4.935,2.212,4.935,4.935v6.012c0,2.723-2.212,4.935-4.935,4.935
		h-6.012c-2.723,0-4.935-2.212-4.935-4.935v-6.012C305.601,271.059,307.813,268.847,310.535,268.847z"/>
	<path style="fill:#6C7678;" d="M292.158,287.848h6.012c2.723,0,4.935,2.212,4.935,4.935v6.012c0,2.723-2.212,4.935-4.935,4.935
		h-6.012c-2.723,0-4.935-2.212-4.935-4.935v-6.012C287.224,290.06,289.436,287.848,292.158,287.848z"/>
	<path style="fill:#6C7678;" d="M310.535,287.848h6.012c2.723,0,4.935,2.212,4.935,4.935v6.012c0,2.723-2.212,4.935-4.935,4.935
		h-6.012c-2.723,0-4.935-2.212-4.935-4.935v-6.012C305.601,290.06,307.813,287.848,310.535,287.848z"/>
	<path style="fill:#6C7678;" d="M345.871,230.789h6.012c2.723,0,4.935,2.212,4.935,4.935v6.012c0,2.722-2.212,4.935-4.935,4.935
		h-6.012c-2.723,0-4.935-2.212-4.935-4.935v-6.012C340.936,233.001,343.148,230.789,345.871,230.789z"/>
	<path style="fill:#6C7678;" d="M364.304,230.789h6.012c2.722,0,4.935,2.212,4.935,4.935v6.012c0,2.722-2.212,4.935-4.935,4.935
		h-6.012c-2.723,0-4.935-2.212-4.935-4.935v-6.012C359.37,233.001,361.582,230.789,364.304,230.789z"/>
	<path style="fill:#6C7678;" d="M345.871,249.789h6.012c2.723,0,4.935,2.212,4.935,4.935v6.012c0,2.723-2.212,4.935-4.935,4.935
		h-6.012c-2.723,0-4.935-2.212-4.935-4.935v-6.012C340.936,252.001,343.148,249.789,345.871,249.789z"/>
	<path style="fill:#6C7678;" d="M364.304,249.789h6.012c2.722,0,4.935,2.212,4.935,4.935v6.012c0,2.723-2.212,4.935-4.935,4.935
		h-6.012c-2.723,0-4.935-2.212-4.935-4.935v-6.012C359.37,252.001,361.582,249.789,364.304,249.789z"/>
	<path style="fill:#6C7678;" d="M345.871,268.847h6.012c2.723,0,4.935,2.212,4.935,4.935v6.012c0,2.723-2.212,4.935-4.935,4.935
		h-6.012c-2.723,0-4.935-2.212-4.935-4.935v-6.012C340.936,271.059,343.148,268.847,345.871,268.847z"/>
	<path style="fill:#6C7678;" d="M364.304,268.847h6.012c2.722,0,4.935,2.212,4.935,4.935v6.012c0,2.723-2.212,4.935-4.935,4.935
		h-6.012c-2.723,0-4.935-2.212-4.935-4.935v-6.012C359.37,271.059,361.582,268.847,364.304,268.847z"/>
	<path style="fill:#6C7678;" d="M345.871,287.848h6.012c2.723,0,4.935,2.212,4.935,4.935v6.012c0,2.723-2.212,4.935-4.935,4.935
		h-6.012c-2.723,0-4.935-2.212-4.935-4.935v-6.012C340.936,290.06,343.148,287.848,345.871,287.848z"/>
	<path style="fill:#6C7678;" d="M364.304,287.848h6.012c2.722,0,4.935,2.212,4.935,4.935v6.012c0,2.723-2.212,4.935-4.935,4.935
		h-6.012c-2.723,0-4.935-2.212-4.935-4.935v-6.012C359.37,290.06,361.582,287.848,364.304,287.848z"/>
</g>
<path style="fill:#FFE356;" d="M382.851,230.789h6.012c2.722,0,4.935,2.212,4.935,4.935v6.012c0,2.722-2.212,4.935-4.935,4.935
	h-6.012c-2.723,0-4.935-2.212-4.935-4.935v-6.012C377.917,233.001,380.129,230.789,382.851,230.789z"/>
<path style="fill:#FF7069;" d="M401.285,230.789h6.012c2.723,0,4.935,2.212,4.935,4.935v6.012c0,2.722-2.212,4.935-4.935,4.935
	h-6.012c-2.723,0-4.935-2.212-4.935-4.935v-6.012C396.35,233.001,398.563,230.789,401.285,230.789z"/>
<g>
	<path style="fill:#6C7678;" d="M382.851,249.789h6.012c2.722,0,4.935,2.212,4.935,4.935v6.012c0,2.723-2.212,4.935-4.935,4.935
		h-6.012c-2.723,0-4.935-2.212-4.935-4.935v-6.012C377.917,252.001,380.129,249.789,382.851,249.789z"/>
	<path style="fill:#6C7678;" d="M401.285,249.789h6.012c2.723,0,4.935,2.212,4.935,4.935v6.012c0,2.723-2.212,4.935-4.935,4.935
		h-6.012c-2.723,0-4.935-2.212-4.935-4.935v-6.012C396.35,252.001,398.563,249.789,401.285,249.789z"/>
	<path style="fill:#6C7678;" d="M382.851,268.847h6.012c2.722,0,4.935,2.212,4.935,4.935v6.012c0,2.723-2.212,4.935-4.935,4.935
		h-6.012c-2.723,0-4.935-2.212-4.935-4.935v-6.012C377.917,271.059,380.129,268.847,382.851,268.847z"/>
</g>
<path style="fill:#83CF8F;" d="M401.285,268.847h6.012c2.723,0,4.935,2.212,4.935,4.935v6.012c0,2.723-2.212,4.935-4.935,4.935
	h-6.012c-2.723,0-4.935-2.212-4.935-4.935v-6.012C396.35,271.059,398.563,268.847,401.285,268.847z"/>
<path style="fill:#6C7678;" d="M382.851,287.848h6.012c2.722,0,4.935,2.212,4.935,4.935v6.012c0,2.723-2.212,4.935-4.935,4.935
	h-6.012c-2.723,0-4.935-2.212-4.935-4.935v-6.012C377.917,290.06,380.129,287.848,382.851,287.848z"/>
<path style="fill:#83CF8F;" d="M401.285,287.848h6.012c2.723,0,4.935,2.212,4.935,4.935v6.012c0,2.723-2.212,4.935-4.935,4.935
	h-6.012c-2.723,0-4.935-2.212-4.935-4.935v-6.012C396.35,290.06,398.563,287.848,401.285,287.848z"/>
<path style="fill:#FFFFFF;" d="M260.452,401.966c8.338,0,15.087,6.75,15.087,15.03c0,8.338-6.75,15.087-15.087,15.087
	c-8.338,0-15.03-6.75-15.03-15.087S252.171,401.966,260.452,401.966z"/>
<g>
	<path style="fill:#ECF0F1;" d="M273.725,413.139c0,8.338-6.75,15.087-15.03,15.087c-5.275,0-9.869-2.723-12.592-6.806
		c1.872,6.239,7.6,10.72,14.407,10.72c8.338,0,15.03-6.75,15.03-15.087c0-3.063-0.908-5.899-2.496-8.281
		c0.397,1.361,0.624,2.836,0.624,4.311L273.725,413.139z"/>
	<path style="fill:#ECF0F1;" d="M123.25,103.909l69.027-8.451c1.702-0.227,3.12,1.021,3.12,2.779l0,0
		c0,1.758-1.418,3.346-3.12,3.573l-69.027,8.451c-1.702,0.227-3.12-1.021-3.12-2.779l0,0
		C120.13,105.724,121.548,104.136,123.25,103.909z M135.898,182.748l68.97-4.254c1.758-0.113,3.176,1.248,3.176,2.949l0,0
		c0,1.758-1.418,3.233-3.12,3.346l-68.97,4.254c-1.758,0.113-3.176-1.248-3.176-2.949l0,0
		C132.779,184.336,134.197,182.861,135.898,182.748z M134.877,163.917l69.027-6.636c1.702-0.17,3.12,1.134,3.12,2.893l0,0
		c0,1.758-1.418,3.29-3.12,3.46l-69.027,6.636c-1.702,0.17-3.12-1.134-3.12-2.893l0,0
		C131.758,165.619,133.176,164.087,134.877,163.917z M132.495,143.555l69.027-7.09c1.702-0.17,3.12,1.078,3.12,2.836l0,0
		c0,1.758-1.418,3.29-3.12,3.517l-69.027,7.09c-1.702,0.17-3.12-1.078-3.12-2.836l0,0
		C129.375,145.313,130.793,143.782,132.495,143.555z M129.546,122.286l69.027-7.544c1.702-0.17,3.12,1.078,3.12,2.836l0,0
		c0,1.758-1.418,3.346-3.12,3.517l-69.027,7.544c-1.702,0.17-3.12-1.078-3.12-2.836l0,0
		C126.426,124.044,127.844,122.456,129.546,122.286z"/>
</g>
<path style="fill:#E4E7ED;" d="M100.222,459.195h311.556c-43.163,33.124-97.159,52.862-155.75,52.862s-112.587-19.681-155.75-52.862
	H100.222z"/>
<g>
</g>
<g>
</g>
<g>
</g>
<g>
</g>
<g>
</g>
<g>
</g>
<g>
</g>
<g>
</g>
<g>
</g>
<g>
</g>
<g>
</g>
<g>
</g>
<g>
</g>
<g>
</g>
<g>
</g>
</svg>
