<svg xmlns="http://www.w3.org/2000/svg" xmlns:xlink="http://www.w3.org/1999/xlink" viewBox="0 0 309.53 71.48"><defs><style>.cls-1{fill:none;stroke:#00963f;stroke-width:2.83px;}.cls-1,.cls-10,.cls-11,.cls-12,.cls-13,.cls-14,.cls-15,.cls-16,.cls-17,.cls-18,.cls-19,.cls-2,.cls-20,.cls-21,.cls-22,.cls-23,.cls-24,.cls-25,.cls-26,.cls-27,.cls-28,.cls-29,.cls-30,.cls-31,.cls-32,.cls-33,.cls-34,.cls-35,.cls-36,.cls-4,.cls-41,.cls-5,.cls-6,.cls-7,.cls-8,.cls-9{stroke-miterlimit:22.93;}.cls-2,.cls-37,.cls-38,.cls-50{fill:#50ae30;}.cls-2{stroke:#fff;stroke-width:0.24px;}.cls-10,.cls-11,.cls-12,.cls-13,.cls-14,.cls-15,.cls-16,.cls-17,.cls-18,.cls-19,.cls-2,.cls-20,.cls-21,.cls-22,.cls-23,.cls-24,.cls-25,.cls-26,.cls-27,.cls-28,.cls-29,.cls-30,.cls-31,.cls-32,.cls-33,.cls-34,.cls-35,.cls-36,.cls-37,.cls-39,.cls-4,.cls-40,.cls-41,.cls-42,.cls-5,.cls-6,.cls-7,.cls-8,.cls-9{fill-rule:evenodd;}.cls-3{fill:#a1d9f8;}.cls-10,.cls-11,.cls-12,.cls-13,.cls-14,.cls-15,.cls-16,.cls-17,.cls-18,.cls-19,.cls-20,.cls-21,.cls-22,.cls-23,.cls-24,.cls-25,.cls-26,.cls-27,.cls-28,.cls-29,.cls-3,.cls-30,.cls-31,.cls-32,.cls-33,.cls-34,.cls-35,.cls-36,.cls-4,.cls-41,.cls-5,.cls-6,.cls-7,.cls-8,.cls-9{opacity:0.5;}.cls-10,.cls-11,.cls-12,.cls-13,.cls-14,.cls-15,.cls-16,.cls-17,.cls-18,.cls-19,.cls-20,.cls-21,.cls-22,.cls-23,.cls-24,.cls-25,.cls-26,.cls-27,.cls-28,.cls-29,.cls-30,.cls-31,.cls-32,.cls-33,.cls-34,.cls-35,.cls-36,.cls-4,.cls-41,.cls-5,.cls-6,.cls-7,.cls-8,.cls-9{stroke:#79b935;stroke-width:0.22px;}.cls-4{fill:url(#GradientFill_1);}.cls-5{fill:url(#GradientFill_1-2);}.cls-6{fill:url(#GradientFill_1-3);}.cls-7{fill:url(#GradientFill_1-4);}.cls-8{fill:url(#GradientFill_1-5);}.cls-9{fill:url(#GradientFill_1-6);}.cls-10{fill:url(#GradientFill_1-7);}.cls-11{fill:url(#GradientFill_1-8);}.cls-12{fill:url(#GradientFill_1-9);}.cls-13{fill:url(#GradientFill_1-10);}.cls-14{fill:url(#GradientFill_1-11);}.cls-15{fill:url(#GradientFill_1-12);}.cls-16{fill:url(#GradientFill_1-13);}.cls-17{fill:url(#GradientFill_1-14);}.cls-18{fill:url(#GradientFill_1-15);}.cls-19{fill:url(#GradientFill_1-16);}.cls-20{fill:url(#GradientFill_1-17);}.cls-21{fill:url(#GradientFill_1-18);}.cls-22{fill:url(#GradientFill_1-19);}.cls-23{fill:url(#GradientFill_1-20);}.cls-24{fill:url(#GradientFill_1-21);}.cls-25{fill:url(#GradientFill_1-22);}.cls-26{fill:url(#GradientFill_1-23);}.cls-27{fill:url(#GradientFill_1-24);}.cls-28{fill:url(#GradientFill_1-25);}.cls-29{fill:url(#GradientFill_1-26);}.cls-30{fill:url(#GradientFill_1-27);}.cls-31{fill:url(#GradientFill_1-28);}.cls-32{fill:url(#GradientFill_1-29);}.cls-33{fill:url(#GradientFill_1-30);}.cls-34{fill:url(#GradientFill_1-31);}.cls-35{fill:url(#GradientFill_1-32);}.cls-36{fill:url(#GradientFill_1-33);}.cls-39{fill:url(#GradientFill_2);}.cls-40{fill:url(#GradientFill_1-34);}.cls-41{fill:url(#GradientFill_1-35);}.cls-42,.cls-43{fill:#006823;}.cls-44,.cls-48,.cls-50{font-size:18px;font-family:Futura-Normal, Futura-Normal;}.cls-44,.cls-48{fill:#ef7c00;}.cls-45{letter-spacing:0.08em;}.cls-46,.cls-48{letter-spacing:0.06em;}.cls-47{letter-spacing:0em;}.cls-49{letter-spacing:0em;}.cls-50{letter-spacing:0.1em;}</style><radialGradient id="GradientFill_1" cx="47.85" cy="10.15" r="9.19" gradientUnits="userSpaceOnUse"><stop offset="0" stop-color="#85bd35"/><stop offset="0.39" stop-color="#5cb13a"/><stop offset="0.81" stop-color="#30a93d"/><stop offset="1" stop-color="#30a93d"/></radialGradient><radialGradient id="GradientFill_1-2" cx="43.92" cy="6.74" r="5.87" xlink:href="#GradientFill_1"/><radialGradient id="GradientFill_1-3" cx="41.11" cy="5.27" r="3.78" xlink:href="#GradientFill_1"/><radialGradient id="GradientFill_1-4" cx="39.16" cy="4.88" r="2.41" xlink:href="#GradientFill_1"/><radialGradient id="GradientFill_1-5" cx="37.69" cy="4.73" r="1.42" xlink:href="#GradientFill_1"/><radialGradient id="GradientFill_1-6" cx="36.44" cy="4.63" r="0.69" xlink:href="#GradientFill_1"/><radialGradient id="GradientFill_1-7" cx="35.26" cy="4.63" r="0.65" xlink:href="#GradientFill_1"/><radialGradient id="GradientFill_1-8" cx="34.02" cy="4.72" r="1.36" xlink:href="#GradientFill_1"/><radialGradient id="GradientFill_1-9" cx="32.57" cy="4.87" r="2.34" xlink:href="#GradientFill_1"/><radialGradient id="GradientFill_1-10" cx="30.67" cy="5.21" r="3.67" xlink:href="#GradientFill_1"/><radialGradient id="GradientFill_1-11" cx="27.93" cy="6.62" r="5.69" xlink:href="#GradientFill_1"/><radialGradient id="GradientFill_1-12" cx="24.06" cy="9.83" r="8.92" xlink:href="#GradientFill_1"/><radialGradient id="GradientFill_1-13" cx="20.5" cy="16.31" r="13.35" xlink:href="#GradientFill_1"/><radialGradient id="GradientFill_1-14" cx="20.09" cy="24.29" r="17.45" xlink:href="#GradientFill_1"/><radialGradient id="GradientFill_1-15" cx="21.39" cy="30.22" r="20.37" xlink:href="#GradientFill_1"/><radialGradient id="GradientFill_1-16" cx="23.99" cy="33.67" r="21.73" xlink:href="#GradientFill_1"/><radialGradient id="GradientFill_1-17" cx="28.04" cy="35.48" r="22.04" xlink:href="#GradientFill_1"/><radialGradient id="GradientFill_1-18" cx="33.02" cy="36.27" r="21.99" xlink:href="#GradientFill_1"/><radialGradient id="GradientFill_1-19" cx="38.3" cy="36.3" r="21.98" xlink:href="#GradientFill_1"/><radialGradient id="GradientFill_1-20" cx="43.28" cy="35.56" r="22.05" xlink:href="#GradientFill_1"/><radialGradient id="GradientFill_1-21" cx="47.37" cy="33.83" r="21.77" xlink:href="#GradientFill_1"/><radialGradient id="GradientFill_1-22" cx="50.09" cy="30.52" r="20.5" xlink:href="#GradientFill_1"/><radialGradient id="GradientFill_1-23" cx="51.42" cy="24.77" r="17.66" xlink:href="#GradientFill_1"/><radialGradient id="GradientFill_1-24" cx="51.26" cy="16.85" r="13.65" xlink:href="#GradientFill_1"/><radialGradient id="GradientFill_1-25" cx="35.81" cy="64.4" r="12.75" xlink:href="#GradientFill_1"/><radialGradient id="GradientFill_1-26" cx="35.81" cy="58.09" r="19.53" xlink:href="#GradientFill_1"/><radialGradient id="GradientFill_1-27" cx="35.81" cy="49.9" r="22.68" xlink:href="#GradientFill_1"/><radialGradient id="GradientFill_1-28" cx="35.82" cy="40.32" r="23.1" xlink:href="#GradientFill_1"/><radialGradient id="GradientFill_1-29" cx="35.8" cy="30.11" r="21.52" xlink:href="#GradientFill_1"/><radialGradient id="GradientFill_1-30" cx="35.8" cy="20.41" r="18.03" xlink:href="#GradientFill_1"/><radialGradient id="GradientFill_1-31" cx="51.98" cy="8.56" r="0.95" xlink:href="#GradientFill_1"/><radialGradient id="GradientFill_1-32" cx="35.83" cy="12.32" r="12.99" xlink:href="#GradientFill_1"/><radialGradient id="GradientFill_1-33" cx="35.8" cy="6.72" r="6.89" xlink:href="#GradientFill_1"/><linearGradient id="GradientFill_2" x1="103.29" y1="77.83" x2="-54.28" y2="16.77" gradientUnits="userSpaceOnUse"><stop offset="0" stop-color="#00642b"/><stop offset="1" stop-color="#30a93d"/></linearGradient><radialGradient id="GradientFill_1-34" cx="-9.73" cy="67.18" r="69.19" gradientTransform="translate(0 14.87) scale(1 0.78)" xlink:href="#GradientFill_1"/><radialGradient id="GradientFill_1-35" cx="16.76" cy="41.02" r="0.04" xlink:href="#GradientFill_1"/></defs><title>Ресурс 1лого</title><g id="Слой_2" data-name="Слой 2"><g id="_1" data-name="1"><circle class="cls-1" cx="35.74" cy="35.74" r="34.32"/><path class="cls-2" d="M49,27.9c-.4-.46-.52-.15-1-.27a8.8,8.8,0,0,0-2.65-.15c-.37.15-1.13-.27-1.37-.4s-1,0-1.07.43-.37.43-.91.15-1.37-.27-1.4,0-.43.61-.64.7a1.42,1.42,0,0,0-.31.57,1,1,0,0,1,.38.34c.2.24.73.2.81,0s.93.24,1.42.65-.24.12-.45.53-.81,0-1,.16a3.56,3.56,0,0,1-1.5.2c-.28,0-.77.41-.73.61s1.1-.12,1.46.12.73-.24.93,0,.65.08.85.16a6.31,6.31,0,0,0,1.34-.08.79.79,0,0,0,.17-.51c0-.27.23-.21.46-.27s.39-.37.57-.37.43-.27.62-.2.41.39.64.2.3,0,.62-.41.52-.32.94-.27a.73.73,0,0,0,.82-.46c.14-.27.55-.27.8-.46a5.58,5.58,0,0,1,.91-.46c.08,0,.09-.11.09-.22C49.53,27.94,49.36,28.29,49,27.9Z"/><path class="cls-2" d="M42.33,29.91c-.49-.41-1.34-.89-1.42-.65s-.61.28-.81,0a.69.69,0,0,0-1-.28c-.61.24-1,.57-1.06.81s-.45.49-.49.16-.53-.45-.85-.53-.85.08-.89-.24-.53-.69-.57-1.06.08-.89-.24-1-.53-.61-.81-.61a16.93,16.93,0,0,1-2.07-.08c-.2-.08-1.26.32-1.34.08a6.55,6.55,0,0,0-1.2-1.32L27.92,24l-.57-.1-2.6.69-.12,4.55h0a2.08,2.08,0,0,0,.72.17c.4,0,.36-.27.36-.49a.8.8,0,0,1,.73-.55c.3,0,.27-.4.37-.4a.58.58,0,0,0,.43-.21c.09-.15.58,0,.73.18a1.87,1.87,0,0,0,.79.27c.27.06.37.91.37,1.1s1.31.15,1.52.18.21.4.43.67a3.92,3.92,0,0,1,.46.85c.09.21.85.49,1,.76a2.79,2.79,0,0,0,1.19.7c.43.15.82.73,1.07.7a2.86,2.86,0,0,1,.91.3l.08.68.09,0c.37-.12.57.28.85.28a.94.94,0,0,1,.41.19,1.18,1.18,0,0,1,.42-1.07c.27-.21-.18-.58-.12-.91s-.7-.52-.64-.79.7-.24,1-.37.06-.58.33-.58.4-.27.49-.55.55,0,.79-.18.61-.3.7-.15-.23.63-.36.84a2.94,2.94,0,0,0,1.19-.21c.16-.16.77.24,1-.16S42.82,30.32,42.33,29.91Z"/><path class="cls-2" d="M35.7,33.44a2.86,2.86,0,0,0-.91-.3c-.24,0-.64-.55-1.07-.7a2.79,2.79,0,0,1-1.19-.7c-.18-.27-.94-.55-1-.76a3.92,3.92,0,0,0-.46-.85c-.21-.27-.21-.64-.43-.67s-1.52,0-1.52-.18-.09-1-.37-1.1a1.87,1.87,0,0,1-.79-.27c-.15-.15-.64-.34-.73-.18a.58.58,0,0,1-.43.21c-.09,0-.06.43-.37.4a.8.8,0,0,0-.73.55c0,.21,0,.52-.36.49a2.08,2.08,0,0,1-.72-.17c-.06,0-.39.27-.72-.17s-.93-1-1.26-1-1.3,0-1.06.56c.07-.13.21-.21.48-.19.73.06.39.91.79.94s.85.64.49.61-.67.34-1,.21-.82-.43-.94,0-.27.88.21.85.4.3.06.64.52-.06.58.24.33.33.21.82a6.38,6.38,0,0,0,0,1.38c.32,0,.76,0,.85-.16s.64-.64.91-.64.58.12.73-.09,1-.15,1.19,0a1.51,1.51,0,0,0,.76.33c.12,0,.18.27.49.24s.88.09.88.27a.44.44,0,0,0,.46.36c.24,0,.46.61.7.58s.73,0,.73.12a5.42,5.42,0,0,0,.18,1.26.23.23,0,0,1,.22,0c.12.08.65-.08.73.2s.93.12.89-.33,1.34-.45,1.46-.85.28-1.14.61-1,.53-.53.81-.49.45.24.76.18Z"/><path class="cls-2" d="M56.42,18.65c0-.21-.21-.12-.36,0a2.47,2.47,0,0,1-.82.15c-.18,0-.52-.24-.52-.43s0-.39-.22-.39-.46-.09-.64-.53-.46-.43-.66-.55-.78.2-1,.3-.68-.09-1-.16-.5-.64-.8-.57-.37.66-.59.66-.64-1.19-1.07-1.85-1.21-2-1.89-2.24-.48-.59-.3-.78-.41-.23-.68-.07a3.79,3.79,0,0,1-.94.52c-.32.07-.78.57-1.12.46s-.5.43-.78.18.37-.43.37-.66-.43.07-.55-.07-.48-.27-.48-.07-.3.09-.3-.07-.2-.46-.39-.25-.8.32-.94.16.09-.23.11-.43-.23-.48-.18-.73-.43-.5-.66-.41a1.12,1.12,0,0,1-.8-.11c-.25-.11-1.23.07-1.28.3s-1.28.41-1.51.5a11.85,11.85,0,0,1-1.46.27c-.32,0-.64.32-1,.32a3.07,3.07,0,0,0-1.55.32c-.36.27-1,0-1.23.14s-.73,0-.87,0-.09.64,0,.87.87.32.91.46-.73.14-1.1.18-.27.5-.18.73-.36.46-.64.55,0,.55.27.55.5.23.73.23.27.46.27.73-.27.36-.64.36-.55-.27-.78-.32-.18.41-.37.5-.23-.32-.5-.32-.59,0-.68-.32-.73-.32-1,0-.37.14-.59,0-.91.09-1,.32-.59.32-1,.09-.59-.32-.59,0-.27,0-.27-.14-.59-.55-.87-.73-1.14-.18-1.19-.37-.59-.32-.73,0-.37.09-.55,0-.59.14-.78.23a3.46,3.46,0,0,1-1.1.5c-.32,0-.14.41-.55.5s-.32.36-.27.55.27.5-.09.64-.5-.46-.82-.68-.59,0-.59.37-.36.32-.55.64.32.37.32.5-.27.27-.36.32-.32.5-.23.64.64.09.59.41-.09.64.18.55a2.09,2.09,0,0,1,.73,0c.18,0,.32.37.64.73s.46.55.14.64-.18.27.23.46a2.1,2.1,0,0,1,.33.2l.19-.14a2.71,2.71,0,0,1,2.16-.7c.7.18,1.28-.12,1.58.3s0,1.22.12,1.52-.55.33-1,.27-1.4.18-1.28.46.46.91-.15.58-.85.33-.52.33.79.4.79.67,0,.88.33.79.3.46.73.43.82.12.49.52.21,1.49.33,1.25,0-.49.13-.7c-.24-.56.77-.56,1.06-.56s.89.49,1.26,1,.73.16.73.16l.12-4.55,2.6-.69a.89.89,0,0,1,.09-.17l2.16,1.5a6.55,6.55,0,0,1,1.2,1.32c.08.24,1.14-.16,1.34-.08a16.93,16.93,0,0,0,2.07.08c.28,0,.49.53.81.61s.2.61.24,1,.53.73.57,1.06.57.16.89.24.81.2.85.53.45.08.49-.16.45-.57,1.06-.81a.8.8,0,0,1,.59-.06,1.42,1.42,0,0,1,.31-.57c.21-.09.61-.39.64-.7s.85-.3,1.4,0,.88.27.91-.15S43.8,27,44,27.08s1,.55,1.37.4a8.8,8.8,0,0,1,2.65.15c.46.12.58-.18,1,.27s.49,0,.86.33c0-.12,0-.26,0-.42s.46-.55.55-.78S50,26.13,50,25.9s0-.78-.23-.89.43-.41.59-.4c.34,0,.82-.34,1-.19a1.1,1.1,0,0,0,.74.19c.29,0,.17-.34,0-.48s.53-1.52.63-2,.36,0,.69,0a4,4,0,0,1,.95.08,1.12,1.12,0,0,0,1-.36c.15-.23-.17-.3-.15-.82s.34-.78.67-.78.44-.32.44-.57.27-.37.36-.66a.82.82,0,0,1-.22-.39ZM47.66,23h0c-.85,0-2.74-.43-3.5.4s-.21,1.25-.55,1.31-.55-1.25-.12-1.67a3.55,3.55,0,0,1,2.65-.4,11.9,11.9,0,0,0,2.59-.12C48.94,22.58,48.52,23,47.66,23Z"/><path class="cls-2" d="M43.19,34.13c.23.14.18.32.4.29a1,1,0,0,1,.72.23,3.08,3.08,0,0,1,.34-.06s-.16-1.06-.2-1.38-1-.65-1-.65l-.16-.89a6.39,6.39,0,0,1-1.34.08c-.2-.08-.65.12-.85-.16s-.57.2-.93,0-1.42.08-1.46-.12.45-.65.73-.61h.32c.13-.22.44-.72.36-.84s-.46,0-.7.15-.7-.09-.79.18-.21.55-.49.55-.06.46-.33.58-.91.09-1,.37.7.46.64.79.4.7.12.91a1.18,1.18,0,0,0-.42,1.07c.2.13.39.24.48.05s1.06,0,1.06-.28,1-.2,1-.49.57-.93.93-.89,0,.65.41.85-.2.93,0,1.22c.09.11.27.09.49,0l.55-.18C42.47,34.52,43,34,43.19,34.13Z"/><ellipse class="cls-3" cx="35.62" cy="36.01" rx="31.76" ry="31.65"/><path class="cls-4" d="M59.88,15h0a28.38,28.38,0,0,0-16.29-9H43.5a27,27,0,0,0-4.19-.53L37,5.36H35.81a0,0,0,0,1,0,0,0,0,0,0,1,0,0H37l2.33,0a27.11,27.11,0,0,1,4.19.53h.07A28.44,28.44,0,0,1,59.9,15a0,0,0,0,1,0,0Z"/><path class="cls-5" d="M52,8.4h0A24.31,24.31,0,0,0,40,5.14h-.12c-1.41,0-2.46.08-4,.21a0,0,0,0,1,0,0,0,0,0,0,1,0,0c1.58-.14,2.64-.21,4-.21H40A24.36,24.36,0,0,1,52,8.35a0,0,0,0,1,0,0Z"/><path class="cls-6" d="M46.41,5.76h0a19.72,19.72,0,0,0-10.58-.41,0,0,0,1,1,0-.05,19.77,19.77,0,0,1,10.61.41,0,0,0,0,1,0,0Z"/><path class="cls-7" d="M35.81,5.35l0,0a0,0,0,0,1,0,0l.55-.19a15.67,15.67,0,0,1,1.59-.44,11.35,11.35,0,0,1,4.58-.06,0,0,0,0,1,0,0,0,0,0,0,1,0,0A11.31,11.31,0,0,0,38,4.72a15.65,15.65,0,0,0-1.59.44l-.54.19Z"/><path class="cls-8" d="M35.81,5.35h0a0,0,0,0,1,0,0l.35-.23a6.53,6.53,0,0,1,1-.54,5,5,0,0,1,2-.39l.45,0a0,0,0,0,1,0,0,0,0,0,0,1,0,0l-.45,0a4.86,4.86,0,0,0-2,.39,6.51,6.51,0,0,0-1,.53l-.34.23Z"/><path class="cls-9" d="M35.81,5.35h0a0,0,0,0,1,0,0s.16-.32.24-.47a1.73,1.73,0,0,1,1-.92,0,0,0,0,1,0,0,0,0,0,0,1,0,0,1.68,1.68,0,0,0-1,.9c-.08.15-.24.46-.24.47Z"/><path class="cls-10" d="M35.81,5.35l0,0s-.14-.32-.21-.47c-.2-.4-.23-.42-.46-.59L34.69,4a0,0,0,0,1,0,0,0,0,0,0,1,0,0l.41.32c.24.17.27.2.48.61.08.15.21.47.21.47a0,0,0,0,1,0,0Z"/><path class="cls-11" d="M35.81,5.35h0l-.33-.23a6.23,6.23,0,0,0-1-.54,4.49,4.49,0,0,0-1.85-.4l-.43,0a0,0,0,0,1,0-.05h0l.43,0a4.52,4.52,0,0,1,1.87.4,6.25,6.25,0,0,1,1,.54l.33.23a0,0,0,0,1,0,0Z"/><path class="cls-12" d="M35.81,5.35h0l-.53-.2a14.32,14.32,0,0,0-1.55-.45,10.7,10.7,0,0,0-4.39-.09,0,0,0,0,1,0,0,0,0,0,0,1,0,0,10.76,10.76,0,0,1,4.41.09,14.32,14.32,0,0,1,1.55.45l.53.2a0,0,0,0,1,0,0Z"/><path class="cls-13" d="M25.52,5.66l0,0a0,0,0,0,1,0,0,19.49,19.49,0,0,1,10.3-.31,0,0,0,0,1,0,0,0,0,0,0,1,0,0,19.44,19.44,0,0,0-10.28.31Z"/><path class="cls-14" d="M20,8.14h0a0,0,0,0,1,0,0c4.69-2.58,9.41-3.42,15.78-2.79a0,0,0,0,1,0,0,0,0,0,0,1,0,0h0c-6.36-.63-11.07.21-15.75,2.78Z"/><path class="cls-15" d="M12.31,14.36h0a0,0,0,0,1,0,0,28.89,28.89,0,0,1,17-8.68,34.61,34.61,0,0,1,5.37-.33h1.12a0,0,0,0,1,0,0,0,0,0,0,1,0,0H34.69a34.6,34.6,0,0,0-5.36.32,28.83,28.83,0,0,0-17,8.66Z"/><path class="cls-16" d="M5.19,27.33h0a0,0,0,0,1,0,0,28.5,28.5,0,0,1,8.6-13.37A34.15,34.15,0,0,1,27.91,6.47a39.1,39.1,0,0,1,7.9-1.17h0a0,0,0,0,1,0,.05,39.06,39.06,0,0,0-7.89,1.17C16.79,9.37,8.08,17.34,5.22,27.31Z"/><path class="cls-17" d="M5,43.29l0,0A26.2,26.2,0,0,1,7.43,25.39,38.09,38.09,0,0,1,30,6.54a28.72,28.72,0,0,1,3.76-.92l1.66-.26.41-.05a0,0,0,0,1,0,0,0,0,0,0,1,0,0l-.41.05-1.66.26A28.68,28.68,0,0,0,30,6.59a37.45,37.45,0,0,0-10.46,5.11C10.15,18.21,2,30.5,5,43.26a0,0,0,0,1,0,0Z"/><path class="cls-18" d="M10.73,55.14h0a17.93,17.93,0,0,1-3.18-6.76l-.12-.49A11.46,11.46,0,0,1,7,45.25c0-.63,0-1.26,0-1.87a33,33,0,0,1,.09-4.28c.06-.54.15-1.09.23-1.62l.07-.43a31.72,31.72,0,0,1,1.16-4.62,43.77,43.77,0,0,1,10.4-17.11,38.37,38.37,0,0,1,10.7-7.84,28.24,28.24,0,0,1,4-1.61c.22-.07.73-.22,1.08-.32l.72-.18.35-.08a0,0,0,0,1,0,0,0,0,0,0,1,0,0l-.35.08-.71.18c-.35.09-.86.25-1.08.31a28.16,28.16,0,0,0-4,1.61A38.3,38.3,0,0,0,19,15.36,43.71,43.71,0,0,0,8.57,32.45a31.61,31.61,0,0,0-1.16,4.62l-.07.43c-.09.53-.18,1.08-.23,1.62A32.8,32.8,0,0,0,7,43.38c0,.61,0,1.24,0,1.87a11.42,11.42,0,0,0,.42,2.61l.11.49a17.88,17.88,0,0,0,3.17,6.74,0,0,0,0,1,0,0Z"/><path class="cls-19" d="M18.11,62h0A13.92,13.92,0,0,1,13,53.87l-.05-.21a17.48,17.48,0,0,1-.52-2.86c-.08-1.16-.16-2.42-.24-3.84,0-.1,0-.2,0-.29v-.12c0-.09,0-.73,0-.82a58.38,58.38,0,0,1,.89-7.49,55.85,55.85,0,0,1,8.73-20.6,39.53,39.53,0,0,1,8.58-9.26,24.19,24.19,0,0,1,3.47-2.2c.52-.27,1-.48,1.4-.65l.55-.22,0,0-.55.22c-.43.17-.88.39-1.4.65a24.2,24.2,0,0,0-3.46,2.2,39.48,39.48,0,0,0-8.57,9.25,55.81,55.81,0,0,0-8.72,20.58,58.33,58.33,0,0,0-.89,7.49c0,.09,0,.73,0,.82s0,.08,0,.12,0,.19,0,.29c.08,1.42.16,2.68.24,3.84A17.42,17.42,0,0,0,13,53.65l0,.21A13.86,13.86,0,0,0,18.12,62a0,0,0,0,1,0,0Z"/><path class="cls-20" d="M25.36,65.66h0c-2.74-1.06-3.83-4.51-4.4-7a19.26,19.26,0,0,1-.4-2.21c0-.29-.07-.58-.11-.87a14.11,14.11,0,0,1-.18-2c0-2.66,0-5.39.08-8.12a21.42,21.42,0,0,1,.2-2.33c0-.33.09-.68.12-1,.21-2,.55-4,.92-6A82.26,82.26,0,0,1,27,18a43.42,43.42,0,0,1,5.09-9,20.33,20.33,0,0,1,2.24-2.53,13.19,13.19,0,0,1,1.08-.91l.35-.25a0,0,0,0,1,0,0,0,0,0,0,1,0,0l-.35.25a13,13,0,0,0-1.07.91A20.31,20.31,0,0,0,32.18,9a43.38,43.38,0,0,0-5.08,9,82.24,82.24,0,0,0-5.47,18.08c-.37,2-.72,4-.92,6,0,.34-.08.69-.12,1a21.32,21.32,0,0,0-.2,2.32c0,2.72-.06,5.46-.08,8.12a14.09,14.09,0,0,0,.18,2c0,.28.08.58.11.87a19.3,19.3,0,0,0,.4,2.21c.57,2.49,1.65,5.92,4.37,7a0,0,0,0,1,0,0Z"/><path class="cls-21" d="M32.23,67.23h0l-.13-.07a1.43,1.43,0,0,1-.26-.15,2.76,2.76,0,0,1-.66-1.36l-.05-.19a21.15,21.15,0,0,1-.68-4.25c0-.35-.06-.7-.09-1-.07-.79-.15-1.62-.14-2.43,0-4.46,0-8.83,0-13,0-2,.15-4,.3-5.95l.05-.74c.47-6.58,1.06-12.36,1.79-17.64a99.57,99.57,0,0,1,1.83-10.1c.23-.94.55-2.17.95-3.39.11-.34.24-.68.39-1.05.08-.19.25-.57.25-.57a0,0,0,0,1,0,0,0,0,0,0,1,0,0l-.25.57c-.15.37-.28.71-.39,1-.4,1.22-.71,2.45-.95,3.39a99.65,99.65,0,0,0-1.83,10.09c-.73,5.29-1.32,11.06-1.79,17.64l-.05.74c-.14,1.95-.29,4-.3,5.94,0,4.16,0,8.53,0,13,0,.81.07,1.63.14,2.42,0,.34.06.7.09,1a21.09,21.09,0,0,0,.68,4.24l.06.19A2.72,2.72,0,0,0,31.86,67a1.34,1.34,0,0,0,.25.14l.13.07a0,0,0,0,1,0,0Z"/><path class="cls-22" d="M38.95,67.28h0a0,0,0,0,1,0,0l.12-.07a1.06,1.06,0,0,0,.22-.14c.46-.4.74-2,.85-2.72l0-.17a60.25,60.25,0,0,0,.61-8.93c0-2.27,0-4.51,0-7,0-.14,0-.3,0-.47-.11-2.9-.2-5.53-.3-8.06-.25-6.5-.93-13-1.49-17.86-.36-3.16-.84-6.9-1.59-10.58-.25-1.24-.54-2.57-.89-3.89-.11-.42-.23-.79-.34-1.13l-.22-.62-.11-.27,0,0,.11.27.22.62c.12.34.23.71.34,1.13.36,1.32.64,2.65.89,3.89.75,3.69,1.23,7.42,1.59,10.58.56,4.9,1.24,11.37,1.49,17.87.1,2.52.19,5.16.3,8.06,0,.18,0,.34,0,.48,0,2.47,0,4.71,0,7a60.26,60.26,0,0,1-.61,8.94l0,.17c-.13.76-.4,2.34-.87,2.75a1.07,1.07,0,0,1-.23.15l-.11.06Z"/><path class="cls-23" d="M45.8,65.82h0a0,0,0,0,1,0,0l.54-.27a2.63,2.63,0,0,0,.71-.44c2.16-1.8,2.86-5.13,3.35-8.11a19.77,19.77,0,0,0,.33-3.21c0-2.72,0-5.23,0-7.67,0-.13,0-.25,0-.38v-.09c-.19-2.07-.36-3.85-.63-5.82a87.06,87.06,0,0,0-5.66-21.26,45.75,45.75,0,0,0-4.87-9.21,20.67,20.67,0,0,0-2.32-2.79,12.63,12.63,0,0,0-1-.92l-.34-.25a0,0,0,0,1,0,0,0,0,0,0,1,0,0l.34.25a12.54,12.54,0,0,1,1,.92,20.71,20.71,0,0,1,2.33,2.8A45.8,45.8,0,0,1,44.4,18.5a87.11,87.11,0,0,1,5.67,21.28c.26,2,.44,3.76.63,5.83v.09c0,.13,0,.25,0,.38,0,2.44,0,4.95,0,7.67A19.8,19.8,0,0,1,50.44,57c-.49,3-1.19,6.33-3.37,8.15a2.66,2.66,0,0,1-.72.45l-.54.27Z"/><path class="cls-24" d="M53,62.36h0a0,0,0,0,1,0,0c2.8-1.89,4.6-5.11,5.5-9.84a15,15,0,0,0,.35-2.9c0-.64,0-1.3,0-1.93A34.77,34.77,0,0,0,58.74,43c-.19-1.52-.38-3-.68-4.52a58.17,58.17,0,0,0-8.83-21.09,38.68,38.68,0,0,0-8.13-8.92,23.85,23.85,0,0,0-3.38-2.22c-.48-.25-.92-.47-1.37-.66l-.54-.22a0,0,0,0,1,0,0,0,0,0,0,1,0,0l.54.22c.44.19.89.41,1.37.66A23.86,23.86,0,0,1,41.12,8.4a38.74,38.74,0,0,1,8.15,8.93,58.24,58.24,0,0,1,8.84,21.11c.3,1.51.5,3,.68,4.52a34.85,34.85,0,0,1,.14,4.67c0,.63,0,1.29,0,1.93a15,15,0,0,1-.36,2.91c-.91,4.75-2.71,8-5.52,9.88Z"/><path class="cls-25" d="M60.43,55.74h0a0,0,0,0,1,0,0,18.24,18.24,0,0,0,3.38-7l.12-.48a9.58,9.58,0,0,0,.38-2.27c0-.71,0-1.44,0-2.14a38.84,38.84,0,0,0-.1-4.8c-.05-.52-.15-1.05-.24-1.56l-.09-.5a32.35,32.35,0,0,0-1.21-4.66,44.56,44.56,0,0,0-9.85-16.45A38.73,38.73,0,0,0,42.28,7.75a31,31,0,0,0-4.35-1.81c-.34-.11-.7-.22-1.07-.32l-.71-.18-.35-.08V5.3l.35.08.71.18c.37.1.73.21,1.07.32A31,31,0,0,1,42.3,7.7a38.78,38.78,0,0,1,10.55,8.08,44.6,44.6,0,0,1,9.86,16.47,32.42,32.42,0,0,1,1.21,4.67l.09.5c.09.51.19,1,.24,1.57a38.84,38.84,0,0,1,.1,4.8c0,.7,0,1.43,0,2.14A9.61,9.61,0,0,1,64,48.21l-.12.48a18.28,18.28,0,0,1-3.39,7Z"/><path class="cls-26" d="M66.38,44.25h0a0,0,0,0,1,0,0l.15-.57A11.4,11.4,0,0,0,67,41.13c0-1.28,0-2.24,0-3a20.26,20.26,0,0,0-.43-5.37,26.63,26.63,0,0,0-1.25-4.21A36.44,36.44,0,0,0,52.39,12.06,37.58,37.58,0,0,0,41.6,6.62a37.43,37.43,0,0,0-3.73-.94c-.46-.09-1.37-.23-1.64-.27l-.41-.05a0,0,0,0,1,0,0,0,0,0,0,1,0,0l.41.05c.27,0,1.19.18,1.65.27a37.3,37.3,0,0,1,3.74.94A37.62,37.62,0,0,1,52.42,12,36.49,36.49,0,0,1,65.36,28.52a26.65,26.65,0,0,1,1.25,4.22A20.31,20.31,0,0,1,67,38.12c0,.77,0,1.73,0,3a11.37,11.37,0,0,1-.48,2.53l-.15.57Z"/><path class="cls-27" d="M66.7,28.4l0,0C64.24,18.44,55.55,10,44.55,6.8a39.13,39.13,0,0,0-8.74-1.45,0,0,0,0,1,0,0,0,0,0,0,1,0,0,39.21,39.21,0,0,1,8.75,1.45,34.3,34.3,0,0,1,14,7.92,28.13,28.13,0,0,1,8.19,13.69,0,0,0,0,1,0,0Z"/><path class="cls-28" d="M36.54,66.89H34a27.75,27.75,0,0,1-4.53-.51l-.26,0A29.15,29.15,0,0,1,18,62a0,0,0,0,1,0,0,0,0,0,0,1,0,0,29.09,29.09,0,0,0,11.19,4.36l.26,0a27.75,27.75,0,0,0,4.52.51h1.46a28.89,28.89,0,0,0,3.58-.1l.16,0c.55-.06,2-.21,2.76-.35a30,30,0,0,0,11.7-4.45,0,0,0,0,1,0,0,0,0,0,0,1,0,0,30,30,0,0,1-11.72,4.46c-.76.14-2.21.29-2.76.35l-.16,0A22.07,22.07,0,0,1,36.54,66.89Z"/><path class="cls-29" d="M35.69,63.85a40.24,40.24,0,0,1-4.37-.24c-.77-.08-1.56-.18-2.34-.29A37.76,37.76,0,0,1,25,62.54c-5.26-1.3-12.35-4.11-16.24-10.16a0,0,0,0,1,0,0,0,0,0,0,1,0,0c3.88,6,11,8.84,16.21,10.14a37.86,37.86,0,0,0,3.94.78c.78.11,1.57.2,2.34.29a43.19,43.19,0,0,0,10.1-.12c.71-.08,1.43-.2,2.13-.31l.18,0a37,37,0,0,0,4.42-1c4.79-1.39,11.22-4.21,14.63-9.71a0,0,0,0,1,0,0,0,0,0,0,1,0,0C59.41,57.9,53,60.72,48.17,62.12a37,37,0,0,1-4.42,1l-.18,0c-.7.11-1.42.23-2.13.31A49.11,49.11,0,0,1,35.69,63.85Z"/><path class="cls-30" d="M35.35,57.73c-1,0-1.89-.06-3.13-.15l-.38,0c-.73-.05-1.47-.13-2.18-.21l-.74-.08a37,37,0,0,1-3.77-.62c-1.45-.31-2.55-.58-3.58-.87a36.7,36.7,0,0,1-9.18-4,17.68,17.68,0,0,1-6.82-7.14,13.55,13.55,0,0,1-.86-2.53,0,0,0,0,1,.05,0,13.5,13.5,0,0,0,.86,2.52c3.13,6.56,11.35,9.77,16,11.1,1,.29,2.13.56,3.57.87a36.89,36.89,0,0,0,3.77.62l.74.08c.71.08,1.45.16,2.18.21l.38,0c3.14.23,3.8.27,11.08-.4a37.67,37.67,0,0,0,9-2.11C57,53.37,65.18,49.5,66.87,42.1a0,0,0,0,1,0,0,0,0,0,0,1,0,0c-1.69,7.43-9.91,11.31-14.65,13a37.71,37.71,0,0,1-9,2.12C38.91,57.59,36.92,57.73,35.35,57.73Z"/><path class="cls-31" d="M35.47,48.83a41,41,0,0,1-5-.3L29,48.37l-1.12-.12c-1.15-.13-2.42-.34-3.77-.62-6.24-1.32-10.83-3.18-14.43-5.86a13.45,13.45,0,0,1-5-6.24,8.23,8.23,0,0,1-.38-2.79c0-.28,0-.57,0-.9a0,0,0,0,1,0,0h0a0,0,0,0,1,0,0c0,.32,0,.62,0,.9a8.07,8.07,0,0,0,.38,2.77,13.41,13.41,0,0,0,5,6.22c3.6,2.68,8.18,4.53,14.41,5.85,1.35.28,2.62.49,3.77.62l1.12.12,1.48.16a49.52,49.52,0,0,0,11.28-.06h.08l.25,0A55.75,55.75,0,0,0,53,46.15c1.08-.35,2.12-.74,3.1-1.15,4.15-1.75,9.4-4.86,10.91-9.74a9,9,0,0,0,.32-3.09c0-.11,0-.22,0-.33a0,0,0,0,1,0,0h0a0,0,0,0,1,0,0v.33a9,9,0,0,1-.32,3.1c-1.51,4.9-6.79,8-10.94,9.77-1,.41-2,.8-3.1,1.15a55.77,55.77,0,0,1-10.9,2.24l-.25,0h-.08C39.57,48.69,37.53,48.83,35.47,48.83Z"/><path class="cls-32" d="M36.87,38l-1.38,0h-.26c-2.82-.11-4.86-.19-7.56-.5a46.18,46.18,0,0,1-5.05-.88c-1.37-.31-2.51-.61-3.58-.94s-1.9-.62-2.76-1a24.35,24.35,0,0,1-5.78-3.09,10.34,10.34,0,0,1-3.88-5.12,6.67,6.67,0,0,1-.2-1.65v-.13a6.08,6.08,0,0,1,.6-2.4,0,0,0,0,1,0,0,0,0,0,0,1,0,0,6,6,0,0,0-.6,2.38v.13a6.65,6.65,0,0,0,.19,1.64c1,3.36,4.19,6,9.63,8.18.86.34,1.76.66,2.76,1s2.2.63,3.57.94a46.16,46.16,0,0,0,5,.88c2.7.3,4.73.39,7.55.5h.26a45.2,45.2,0,0,0,7.25-.37A53.29,53.29,0,0,0,54,35.11c.91-.31,1.79-.66,2.61-1C60.77,32.23,65.66,29,65.11,24a5.78,5.78,0,0,0-.54-1.75,0,0,0,0,1,0,0,0,0,0,0,1,0,0A5.8,5.8,0,0,1,65.16,24a7.44,7.44,0,0,1-2.57,6.29,20.33,20.33,0,0,1-6,3.82c-.82.37-1.7.71-2.61,1a53.33,53.33,0,0,1-11.23,2.42A48.56,48.56,0,0,1,36.87,38Z"/><path class="cls-33" d="M35.34,26.79a49.86,49.86,0,0,1-15.85-2.36c-2.29-.78-5.17-1.94-7.06-4.06a4.36,4.36,0,0,1-1-4.79A6.59,6.59,0,0,1,12.53,14a0,0,0,0,1,0,0,0,0,0,0,1,0,0,6.53,6.53,0,0,0-1,1.51,4.3,4.3,0,0,0,.95,4.74c1.88,2.11,4.75,3.27,7,4,8.86,3,18.6,2.6,25.2,1.73,1.11-.15,2.29-.36,3.5-.65,3.64-.85,8.16-2.18,10.79-5a5.24,5.24,0,0,0,1.42-2.56c0-.61-.07-1.25-.14-1.89A2.75,2.75,0,0,0,59.75,15l-.07-.1c-.13-.2-.44-.57-.44-.57a0,0,0,0,1,0,0,0,0,0,0,1,0,0s.31.38.44.58l.06.1A2.78,2.78,0,0,1,60.34,16c.07.64.12,1.28.14,1.89A5.19,5.19,0,0,1,59,20.54c-2.64,2.78-7.16,4.12-10.81,5-1.22.28-2.4.5-3.51.65A72.71,72.71,0,0,1,35.34,26.79Z"/><path class="cls-34" d="M53,9.38h0a8.9,8.9,0,0,0-2-1.59,0,0,0,0,1,0,0,0,0,0,0,1,0,0A9,9,0,0,1,53,9.33a0,0,0,0,1,0,0Z"/><path class="cls-35" d="M33.57,16.91a23.69,23.69,0,0,1-2.47-.17L30,16.63c-3.12-.27-7.41-1.25-9.95-2.86-.43-.27-1.68-1.18-1.82-1.78a8.5,8.5,0,0,1-.21-1.6,2.75,2.75,0,0,1,.36-.78,6.25,6.25,0,0,1,2.27-1.87,0,0,0,0,1,0,0,0,0,0,0,1,0,0,6.2,6.2,0,0,0-2.25,1.85,2.69,2.69,0,0,0-.35.75A8.47,8.47,0,0,0,18.3,12c.14.58,1.37,1.48,1.79,1.75,2.53,1.61,6.81,2.59,9.93,2.86l1.1.11a23.79,23.79,0,0,0,2.46.17h0l5,0a27.63,27.63,0,0,0,3.87-.37c3-.46,6.22-1,8.85-2.64a5.21,5.21,0,0,0,1.9-1.74,2.44,2.44,0,0,0,.3-.79,8.58,8.58,0,0,0-.33-1.56A1.36,1.36,0,0,0,53,9.37a0,0,0,0,1,0,0,0,0,0,0,1,0,0,1.37,1.37,0,0,1,.27.38,8.58,8.58,0,0,1,.33,1.57,2.46,2.46,0,0,1-.31.82,5.26,5.26,0,0,1-1.92,1.76c-2.64,1.6-5.83,2.19-8.87,2.65a27.75,27.75,0,0,1-3.88.37l-5,0Z"/><path class="cls-36" d="M32.18,9.42a4.82,4.82,0,0,1-1-.15l-.41-.09c-1.13-.21-3.21-.76-3.84-1.53a2.64,2.64,0,0,1-.44-.75c-.21-.57.64-1.21,1-1.45a11.22,11.22,0,0,1,4-1.24c1,0,1.81-.06,2.63-.1,1,0,2-.09,2.93-.09a18.78,18.78,0,0,1,5,.62,6.23,6.23,0,0,1,2.1.86c.18.15.35.31.52.46l.25.23h0a1.74,1.74,0,0,1,.17.76,1.48,1.48,0,0,1-.49.76A6.55,6.55,0,0,1,41.78,9l-.42.11a5.21,5.21,0,0,1-1.21.23c-2.69.06-5.37.08-8,.1Zm4.9-5.35h0c-.93,0-1.9,0-2.93.09-.82,0-1.68.08-2.63.1a11.14,11.14,0,0,0-4,1.23c-.37.24-1.2.85-1,1.39a2.59,2.59,0,0,0,.44.74c.62.76,2.69,1.31,3.81,1.51l.41.09a4.78,4.78,0,0,0,1,.15h0c2.59,0,5.26,0,8-.1A5.18,5.18,0,0,0,41.35,9l.42-.11a6.5,6.5,0,0,0,2.85-1.26,1.41,1.41,0,0,0,.48-.73,1.68,1.68,0,0,0-.16-.72L44.69,6c-.17-.15-.34-.31-.51-.46a6.2,6.2,0,0,0-2.08-.85A18.74,18.74,0,0,0,37.08,4.07Z"/><path class="cls-37" d="M67.4,35.38l-.06-.16-.61.21-.09,0-.61.21.34,1a2.78,2.78,0,0,1,0,1v0l-.08-.08a1.87,1.87,0,0,1-.39-.54l-.23-.66-.35.12-1.41-.21h0l-.63-1.63-.11,0,.53,1.69-.43.4v0l-.06,0,0,0-.65.6.07.09L63.3,37l.24.78-.69.64,0,.06.7-.57L64,39.2q-1.48.55-3,1L61,39.95a.93.93,0,0,1,.23-.23l.12-.1s0,.05,0,0a2.68,2.68,0,0,0,.41-.5.53.53,0,0,0,.2-.08A.22.22,0,0,0,62,39a.23.23,0,0,0,.19-.19h.11a.27.27,0,0,0-.05-.54.2.2,0,0,0-.21-.12H62a.14.14,0,0,0-.15-.1h0a.27.27,0,0,0-.53,0h0a.17.17,0,0,0-.15.19v0a.27.27,0,0,0-.14.13l0,0h0a.14.14,0,0,0-.12.16.13.13,0,0,0,0,0,.28.28,0,0,0,0,.16.27.27,0,0,0,.44.17.53.53,0,0,0,.14.08,1,1,0,0,1-.05.35,2.42,2.42,0,0,1-.47.33c-.05-.18-.11-.37-.19-.57a3.67,3.67,0,0,1-.29-1,1.27,1.27,0,0,0,.24-.13.56.56,0,0,0,.3,0,.57.57,0,0,0,.48-.47.67.67,0,0,0,.28,0,.68.68,0,0,0-.13-1.36.5.5,0,0,0-.54-.32l-.08,0h-.1a.35.35,0,0,0-.39-.25h0a.68.68,0,0,0-1.33-.06h0a.43.43,0,0,0-.36.48.53.53,0,0,0,0,.1.67.67,0,0,0-.35.34l-.09,0h0a.35.35,0,0,0-.3.4.34.34,0,0,0,0,.11.67.67,0,0,0-.06.39.68.68,0,0,0,1.12.43,1.34,1.34,0,0,0,.55.27c.15.27.4.56.6.88a1.47,1.47,0,0,1-.55-.11.15.15,0,0,0,0-.05h.07a.17.17,0,0,0,.14-.19.16.16,0,0,0-.17-.14.12.12,0,0,0-.13-.08h0a.09.09,0,0,0-.09-.06h0a.15.15,0,0,0-.19-.11c-.07,0-.12.14-.14.14h0a.08.08,0,0,0-.09.1h0a.16.16,0,0,0-.09.08h0a.08.08,0,0,0-.07.1v0a.17.17,0,0,0,0,.1.17.17,0,0,0,.19.14l.08,0a.32.32,0,0,0,.38,0h.07l.06,0a1.89,1.89,0,0,0,.58.16h0a2,2,0,0,1,.23.58,2.39,2.39,0,0,1,0,.58q-1.53.44-3.08.78a8.55,8.55,0,0,1-1.15-3.36A5.54,5.54,0,0,1,56.49,36l.13,0a5.38,5.38,0,0,0,1.44-.88.38.38,0,0,0,.19,0,.39.39,0,0,0,.19-.08.88.88,0,0,0,.41,0,.9.9,0,0,0,.61-.38A.46.46,0,0,0,60,34a.26.26,0,0,0,0-.08.24.24,0,0,0-.27-.2h-.08a.46.46,0,0,0-.3-.16.33.33,0,0,0,0-.07A.29.29,0,0,0,59,33.2h0a.46.46,0,0,0-.85.29h0a.24.24,0,0,0-.2.24h-.12a.34.34,0,0,0-.29.31.46.46,0,0,0,.17.91.45.45,0,0,0,.18-.06.38.38,0,0,0,.1.13,4.18,4.18,0,0,1-1.38.72c.28-1,.71-2,.92-2.84a3.7,3.7,0,0,0,1.28-1.15,1.91,1.91,0,0,0,2.2-3,1,1,0,0,0,0-.32,1,1,0,0,0-1.12-.84l-.07,0a.86.86,0,0,0-.29-.06,1.92,1.92,0,0,0-1.22-.63,1.19,1.19,0,0,0-1.36-1.31l-.1,0a1.91,1.91,0,0,0-3.53,1.2h-.05a1,1,0,0,0-.85,1h0l-.23.06h-.22a1.41,1.41,0,0,0-1.2,1.28,1.92,1.92,0,1,0,1.45,3.49,1.59,1.59,0,0,0,2.43.55,3.68,3.68,0,0,0,.75.16,10.45,10.45,0,0,1,0,3c0,.59-.07,1.16-.07,1.68a6.7,6.7,0,0,1-1.52-.52,2.83,2.83,0,0,1-.41-.9,1.48,1.48,0,0,0,.31-.33.76.76,0,0,0,.88-1.21.45.45,0,0,0,0-.13.4.4,0,0,0-.45-.34h0l-.11,0a.76.76,0,0,0-.48-.25.5.5,0,0,0,0-.12.48.48,0,0,0-.54-.41h0a.76.76,0,0,0-1.4.48h0a.39.39,0,0,0-.34.39h0l-.09,0h-.09a.56.56,0,0,0-.48.51.76.76,0,0,0,.28,1.5.73.73,0,0,0,.29-.11.64.64,0,0,0,.66.35.63.63,0,0,0,.3-.13,1.49,1.49,0,0,0,.6.07,7.46,7.46,0,0,0,1.5,1c.1.14.08.1,0,0a3,3,0,0,0,.4.18,2.68,2.68,0,0,1,.79.45,18.6,18.6,0,0,0,.24,2.63h0a.45.45,0,0,1,0,.3,58.23,58.23,0,0,1-6.5.78v-.45l-.68,0-.09-2.81h-.38l-.12-3.93h-.43l0-.75L45,34.47l0,.75h-.32l.09,2.93-.22,0a.92.92,0,0,0-.34,0,.89.89,0,0,1,0,.16l-.19,0a.38.38,0,0,0,0,.12h0c0,.05,0,.11,0,.16l-1.49,0,0,1.5H42.4l0,.91h0l0-.5h-.19v-.34h-.11v.34l-.64,0,0-.64h-.16l0,.64h-.13l0,.74,0,.7-1.08,0v.17l-2-.15L36,42a7.34,7.34,0,0,1-.87-.1h.1l0,0a.09.09,0,0,0,.1,0l0,0a.11.11,0,0,0,.05-.21.08.08,0,0,0-.06-.08h0a.06.06,0,0,0,0-.06h0a.11.11,0,0,0-.2-.08h0a.07.07,0,0,0-.08.05v0a.11.11,0,0,0-.07,0h0a.06.06,0,0,0-.07,0,.05.05,0,0,0,0,0,.11.11,0,0,0,0,.06.11.11,0,0,0,.08.13H35l0,0,0,0-.27,0v-.06a1.49,1.49,0,0,1,0-.43l.11,0a.22.22,0,0,0,.11.06.23.23,0,0,0,.25-.11l.1,0a.27.27,0,0,0,.14-.53.2.2,0,0,0-.16-.19h-.07a.14.14,0,0,0-.11-.15h0a.27.27,0,0,0-.49-.2h0a.17.17,0,0,0-.2.13.19.19,0,0,0,0,0,.27.27,0,0,0-.18.08h0a.14.14,0,0,0-.17.11.13.13,0,0,0,0,0,.27.27,0,0,0-.08.14.27.27,0,0,0,.36.31.53.53,0,0,0,.17.17c0,.12.07.27.1.42a.59.59,0,0,1-.19-.12l0,0h0a.07.07,0,0,0,.08-.05.07.07,0,0,0,0-.08,0,0,0,0,0,0,0v-.06h0a.06.06,0,0,0-.05-.07.07.07,0,0,0-.07,0h0a0,0,0,0,0,0,0h0l0,0h0a0,0,0,0,0,0,0,0,0,0,0,0,0,0l0,0a.07.07,0,0,0,.05.08h0a.13.13,0,0,0,.08.06h.11a.77.77,0,0,0,.2.14h0s0,.07,0,.1l-1.4-.21a3,3,0,0,1,.08-1,2.23,2.23,0,0,1,.3-.63h.05a2.17,2.17,0,0,0,.67-.13l.07,0h.08a.35.35,0,0,0,.15.07.36.36,0,0,0,.28-.06.18.18,0,0,0,.09,0,.19.19,0,0,0,.22-.14.18.18,0,0,0,0-.11v0a.1.1,0,0,0-.07-.11h0a.18.18,0,0,0-.09-.1v0a.12.12,0,0,0-.09-.14h0a.19.19,0,0,0-.36,0h0a.1.1,0,0,0-.11.06h0a.14.14,0,0,0-.15.08.19.19,0,0,0-.06.37h.08a.15.15,0,0,0,0,.06,1.69,1.69,0,0,1-.62.08c.25-.35.55-.66.74-.95a1.49,1.49,0,0,0,.64-.26.76.76,0,0,0,.38.2.77.77,0,0,0,.91-.6.76.76,0,0,0,0-.45.38.38,0,0,0,0-.12.4.4,0,0,0-.31-.47h0l-.1-.06a.77.77,0,0,0-.37-.4.48.48,0,0,0-.33-.68h0a.77.77,0,0,0-1.5,0h0a.4.4,0,0,0-.45.25h-.11l-.08,0a.57.57,0,0,0-.63.32.77.77,0,1,0,.07,1.52.64.64,0,0,0,.84.54,1.51,1.51,0,0,0,.26.16,4.17,4.17,0,0,1-.41,1.15c-.1.22-.18.43-.26.62a2.71,2.71,0,0,1-.51-.41,1.15,1.15,0,0,1,0-.4.59.59,0,0,0,.16-.08.31.31,0,0,0,.51-.16.3.3,0,0,0,0-.18l0,0a.16.16,0,0,0-.12-.19h0l0,0a.31.31,0,0,0-.15-.16l0,0a.19.19,0,0,0-.15-.23h0a.31.31,0,0,0-.6,0h0a.16.16,0,0,0-.18.1h-.08a.23.23,0,0,0-.25.13.31.31,0,0,0-.1.6h.13a.25.25,0,0,0,.34.22.59.59,0,0,0,.22.1,3,3,0,0,0,.43.6c0,.07,0,0,0,0l.13.12a1.06,1.06,0,0,1,.24.28c-.09.27-.15.5-.2.7q-1.78-.3-3.55-.65l.1,0,.06,0s0,0,0,0a1.06,1.06,0,0,0,.22-.13h.09l0,0a.09.09,0,0,0,.1,0l0,0a.11.11,0,0,0,.05-.21.08.08,0,0,0-.06-.08h0v0s0,0,0,0h0s0-.15-.09-.16-.09,0-.11,0h0a.07.07,0,0,0-.08,0v0a.11.11,0,0,0-.07,0h0a.06.06,0,0,0-.07,0,.05.05,0,0,0,0,0,.11.11,0,0,0,0,.06.11.11,0,0,0,.08.13h.06l0,0a.41.41,0,0,1-.07.13,1,1,0,0,1-.23.06c0-.07,0-.15,0-.24a1.46,1.46,0,0,1,0-.43l.11,0a.22.22,0,0,0,.11.06.23.23,0,0,0,.25-.11l.1,0a.27.27,0,0,0,.14-.53.2.2,0,0,0-.16-.19h-.07a.14.14,0,0,0-.11-.15h0a.27.27,0,0,0-.49-.2h0a.17.17,0,0,0-.2.13.19.19,0,0,0,0,0,.27.27,0,0,0-.18.08h0a.14.14,0,0,0-.17.11.13.13,0,0,0,0,0,.27.27,0,0,0-.08.14.27.27,0,0,0,.36.31.53.53,0,0,0,.17.17c0,.12.07.27.1.42a.59.59,0,0,1-.19-.12l0,0h0a.07.07,0,0,0,.08-.05.07.07,0,0,0,0-.08,0,0,0,0,0,0,0s0-.08,0-.08V40h0s0,0,0,0v0s0,0-.05-.05a.07.07,0,0,0-.07,0h0a0,0,0,0,0,0,0h0l0,0h0a0,0,0,0,0,0,0h0l0,0a.07.07,0,0,0,.05.08h0a.13.13,0,0,0,.08.06h.11a.76.76,0,0,0,.2.14h0a.81.81,0,0,1,0,.25l0,.08-1.36-.28a3.17,3.17,0,0,1,.07-1.14,2.24,2.24,0,0,1,.3-.63h.05a2.17,2.17,0,0,0,.67-.13l.07,0h.08a.35.35,0,0,0,.15.07.36.36,0,0,0,.28-.06.18.18,0,0,0,.09,0,.19.19,0,0,0,.22-.14.18.18,0,0,0,0-.11v0a.1.1,0,0,0-.07-.11h0a.19.19,0,0,0-.09-.1v0a.12.12,0,0,0-.09-.14h0a.19.19,0,0,0-.36,0h0a.1.1,0,0,0-.11.06h0a.14.14,0,0,0-.15.08.19.19,0,0,0-.06.37h.08a.15.15,0,0,0,0,.06,1.68,1.68,0,0,1-.62.08c.25-.35.55-.66.74-.95a1.48,1.48,0,0,0,.64-.26.77.77,0,0,0,1.25-.84.39.39,0,0,0,0-.12.4.4,0,0,0-.31-.47h0l-.1-.06a.77.77,0,0,0-.37-.4.47.47,0,0,0,0-.11.48.48,0,0,0-.37-.57h0a.77.77,0,0,0-1.5,0h0a.4.4,0,0,0-.45.25h-.11l-.08,0a.57.57,0,0,0-.63.32.77.77,0,1,0,.07,1.52.64.64,0,0,0,.84.54,1.5,1.5,0,0,0,.26.16,4.18,4.18,0,0,1-.41,1.15c-.1.22-.18.43-.26.62a2.71,2.71,0,0,1-.51-.41,1.14,1.14,0,0,1,0-.4.59.59,0,0,0,.16-.08.31.31,0,0,0,.51-.16.3.3,0,0,0,0-.18l0,0a.16.16,0,0,0-.12-.19h0l0,0a.31.31,0,0,0-.15-.16l0,0a.19.19,0,0,0-.15-.23h0a.31.31,0,0,0-.6,0h0a.16.16,0,0,0-.18.1h-.08a.22.22,0,0,0-.25.13.31.31,0,0,0-.1.6h.13a.26.26,0,0,0,.2.22.25.25,0,0,0,.13,0,.6.6,0,0,0,.22.11,3,3,0,0,0,.43.6c0,.07,0,0,0,0l.13.12a1.06,1.06,0,0,1,.24.28,7.76,7.76,0,0,0-.23.82c-.66-.14-3.6-.59-4.25-.74h0l0,0h0a8.71,8.71,0,0,0-1.42-1h0l0-.16a.44.44,0,0,0,.42-.32c.06-.23.12-1.22-.11-1.28s-.68.81-.74,1a.44.44,0,0,0,.2.49l0,.12-.61-.3,0-.11a.35.35,0,0,0,.31-.26c.05-.19.1-1-.09-1s-.54.65-.59.84A.36.36,0,0,0,20,38l0,.07h0l-.08,0h-.07l-.15-.07c-.36-.14-1.1-.36-1.1-.36l-.27-.08.12-.45.38.11L18.77,37,18,34.7l-1.94-.54-.28,1-.14,0L16,33.94l.13,0,.11-.39-.76-.21-.11.39.11,0-.16.59-1.71,1.18.24.07-.41,1.51,0,.06-1.5-.44a.43.43,0,0,0,.25-.29c.06-.23.12-1.22-.11-1.28s-.68.81-.74,1a.44.44,0,0,0,.07.37l-.34-.1a.35.35,0,0,0,.07-.13c.05-.19.1-1-.09-1s-.54.65-.59.84a.36.36,0,0,0,0,.12L9.5,36l.2-.54-.41-.15L9.41,35l-.7-.26a2.31,2.31,0,0,0,.08-1.19,2.6,2.6,0,0,1,.06-.92l.34-.91-.57-.21-.08,0L8,31.27l-.34.91a2.6,2.6,0,0,1-.56.74L7,33v0A3.85,3.85,0,0,1,7,31.63l.5-1.34L6.7,30l-.12,0-.84-.31L5.25,31a3.84,3.84,0,0,1-.82,1.09l0,0,0-.15A2.59,2.59,0,0,1,4.44,31l.34-.91L4.42,30a31.48,31.48,0,0,0,6.76,25.94H60.1a31.13,31.13,0,0,0,7.3-20.18c0-.14,0-.2,0-.33ZM16.8,37.11l.17-.62.62.17-.17.62-.62-.17Zm2.15,1.59-.06,0h.06Zm-2.54-.64-.6-.17L16.32,36h0l1.43-1,.56,1.55L18,37.81a7.92,7.92,0,0,0-1.57.25Zm-1.78-2h0l.62.17-.17.62-.62-.17.17-.62Zm1.21-2.83v0a.28.28,0,0,1,0-.07.36.36,0,0,1,0-.11.61.61,0,0,1,.07-.13.49.49,0,0,0,.06-.11.38.38,0,0,0,0-.1h0v-.08a.68.68,0,0,0,0-.11.68.68,0,0,1-.05-.24A.57.57,0,0,1,16,32v0l0,0,0-.05.08-.08a.54.54,0,0,1,.15-.09l.1,0,.07,0,0,0,0,0v0a.33.33,0,0,1,0,.07.35.35,0,0,1,0,.11.62.62,0,0,1-.07.13.51.51,0,0,0-.06.11v.07h0v0h0v.07l0,.11a.68.68,0,0,1,.05.24s0,0,0,.07v.11h0v0a.52.52,0,0,1-.14.18.54.54,0,0,1-.15.09l-.1,0-.07,0,0,0,0,0Zm45.8,5.88h0a1.64,1.64,0,0,1-.14.18s0-.11,0-.2Zm-1.39-.34h0l0,0,0,0,0,0-.12-.16h0l-.18-.28h.21l.08,0c0,.12,0,.25.07.35h0v0h0v.12h0v0h0v0h0l0,0Zm-7.51-1.89h0a1.46,1.46,0,0,0,.4-.16c0,.25.1.45.12.54a4.55,4.55,0,0,1-.52-.38ZM33.61,39.54h0v0h0v0h0l.06-.17h0l0-.07h0l.07-.23v-.12l.08,0,.24,0h0l0,0L34,39l-.05.07,0,0,0,.06,0,0-.06.08h0l-.07.08,0,0,0,0,0,0-.06,0ZM32.23,40h0a1.81,1.81,0,0,1-.15-.22h.17c0,.1,0,.18,0,.22Zm-2.88.59h0l.06,0-.08.05,0-.08Zm-1.47-2.28h0v0h0v0h0l.06-.17h0L28,38h0l.06-.23v-.12l.08,0,.24,0h0l0,0,0,.06-.05.07,0,0,0,.06,0,0-.06.08h0l-.07.08,0,0,0,0,0,0-.06,0Zm-1.39.46h0a1.77,1.77,0,0,1-.15-.22h.18c0,.1,0,.18,0,.22Zm-14.2-1.9h0l1,.3-1-.3ZM29,40.1h0v.08h0v0h0v0h0v0h0l0,0h0l0,0h0V40l.08,0h0v0Zm5.73,1.23h0v.08h0v0h0v0h0v0h0l0,0h0l0,0h0v-.17l.08,0h0v0Zm.42.53h0v0l.06,0Zm2.16.23h0L36.49,42l.79.08Zm6.26-.17h0v-.3h.42v.3Zm.77-1h0v-.3h.42v.3Zm2.41-3.69h0v.3h-.42v-.3Zm-.54-.31h-.42v-.3h.42v.3ZM45,35.88h0l1.17,0v.38l-1.17,0v-.38Zm.32,3.62h0v-.38l.59,0v.38l-.59,0Zm.88-.88h0v-.38l1.17,0v.38l-1.17,0Zm10.06-3.76h0l0,0,0,.06,0,0s-.07,0-.07.07h0V35h0a12.53,12.53,0,0,0,0-1.34s0,0,0,0,0-.11,0-.16,0,0,0-.06v0l.21,0a3.79,3.79,0,0,0,.58-.13l-.13.48v0l0,.09,0,.05,0,.14,0,.06,0,.07,0,.06,0,.07,0,.06,0,.11,0,.07,0,.06,0,.06,0,.05,0,.07,0,.06,0,.07Zm7.43,2.9h0l-.3-.78.47-.37.39,1.24-.55-.08Zm.52,1.37h0l-.48-1.23.54,0,.32,1-.39.15Zm.9-.35h0l-.18.07L64.58,38h0V37.9h-.07L64,36.54l1,.08-.23.08.23.66a1.87,1.87,0,0,1,0,.67A1.64,1.64,0,0,0,65.09,38.78Z"/><rect class="cls-38" x="20.25" y="38.73" width="0.91" height="0.15" transform="translate(-21.36 25.97) rotate(-44.95)"/><rect class="cls-38" x="19.86" y="41.57" width="0.15" height="0.91" transform="translate(-23.88 26.42) rotate(-45.03)"/><polygon class="cls-37" points="19.07 42.24 19.18 42.14 19.82 42.78 19.71 42.88 19.07 42.24"/><rect class="cls-38" x="18.88" y="42.55" width="0.15" height="0.91" transform="translate(-24.84 25.95) rotate(-44.95)"/><rect class="cls-38" x="18.38" y="43.04" width="0.15" height="0.91" transform="translate(-25.35 25.79) rotate(-45)"/><rect class="cls-38" x="22.69" y="42.72" width="0.91" height="0.15" transform="translate(-23.5 28.97) rotate(-45.08)"/><rect class="cls-38" x="23.18" y="43.21" width="0.91" height="0.15" transform="translate(-23.69 29.41) rotate(-45.03)"/><rect class="cls-38" x="23.68" y="43.7" width="0.91" height="0.15" transform="translate(-23.89 29.88) rotate(-45)"/><rect class="cls-38" x="24.17" y="44.19" width="0.91" height="0.15" transform="translate(-24.09 30.38) rotate(-45)"/><path class="cls-39" d="M8.15,41.39c-1.36-.64-2.7-1.31-4-1.88a30.75,30.75,0,0,0,7.07,16.37H60.1A27.37,27.37,0,0,0,64.48,49C52.18,50,27.52,50.47,8.15,41.39Z"/><path class="cls-40" d="M35.64,67.55A31.77,31.77,0,0,0,66.43,43.62c-7.14-.07-21.53.7-46.47,5.54-4.24.82-8.3,1.45-12.16,1.92A31.75,31.75,0,0,0,35.64,67.55Z"/><path class="cls-41" d="M16.78,41.05h0L16.73,41h0l.05.06h0Z"/><path class="cls-42" d="M24,37.07l-6.78-6.92a9.65,9.65,0,0,0,1.89,3.22C20.34,34.82,22,36.49,22.51,37A1.4,1.4,0,0,1,24,37.07Z"/><path class="cls-42" d="M33.18,35.64a8.65,8.65,0,0,0-3.53-.12c-1.78.26-4,.76-4.64.92a1.32,1.32,0,0,1-.28.81.83.83,0,0,1,0,.17.87.87,0,0,1,0,.14Z"/><path class="cls-42" d="M24.57,60.56a.39.39,0,0,1-.4.38h-.3a.39.39,0,0,1-.4-.38V38.46a.84.84,0,0,1,.55-.18h.15a.39.39,0,0,1,.4.38Z"/><path class="cls-42" d="M23.47,37.9l-5.88,7.7a9.64,9.64,0,0,0,2.92-2.33c1.27-1.42,2.69-3.29,3.13-3.88A1.4,1.4,0,0,1,23.47,37.9Z"/><circle class="cls-43" cx="23.92" cy="37.44" r="0.82" transform="translate(-13.6 61.24) rotate(-89.82)"/><text class="cls-44" transform="translate(79.2 32.45)">Climate <tspan x="61.9" y="0">Adaptatio</tspan><tspan class="cls-45" x="134.1" y="0">n</tspan><tspan class="cls-46" x="144.47" y="0">&amp;</tspan><tspan class="cls-47" x="157.35" y="0">Mitigation</tspan></text><text class="cls-48" transform="translate(78.72 48.57)">P<tspan class="cls-49" x="8.35" y="0">rogram for Aral Sea Basin</tspan></text><text class="cls-50" transform="translate(79.2 66.7)">CENTRAL ASIA</text><text class="cls-50" transform="translate(79.2 16.33)">CAMP4ASB</text></g></g></svg>