<?xml version="1.0" encoding="utf-8"?>
<!-- Generator: Adobe Illustrator 21.0.2, SVG Export Plug-In . SVG Version: 6.00 Build 0)  -->
<svg version="1.1" id="Layer_1" xmlns="http://www.w3.org/2000/svg" xmlns:xlink="http://www.w3.org/1999/xlink" x="0px" y="0px"
	 viewBox="0 0 512 494.9" style="enable-background:new 0 0 512 494.9;" xml:space="preserve">
<g>
	<g>
		<path d="M463.3,411.1c14.6-10.5,24.1-27.5,24.1-46.8c0-31.7-25.8-57.6-57.6-57.6s-57.6,25.8-57.6,57.6c0,19.3,9.5,36.4,24.2,46.8
			c-28.7,12.8-48.7,41.6-48.7,75c0,4.9,4,8.9,8.9,8.9s8.9-4,8.9-8.9c0-35.4,28.8-64.2,64.2-64.2s64.2,28.8,64.2,64.2
			c0,4.9,4,8.9,8.9,8.9s8.9-4,8.9-8.9C512,452.7,492,423.9,463.3,411.1z M429.9,403.9c-21.9,0-39.7-17.8-39.7-39.7
			s17.8-39.7,39.7-39.7c21.9,0,39.7,17.8,39.7,39.7S451.8,403.9,429.9,403.9z"/>
	</g>
</g>
<g>
	<g>
		<path d="M313,23.4C297.4,8,276.7-0.3,254.8,0c-44.7,0.6-80.5,37.5-79.9,82.2c0.3,20.8,8.4,40.4,22.9,55.4
			c9.8,10.2,15.3,23.3,15.3,36.9v10.4c0,20.9,17,37.9,37.9,37.9h10.2c20.9,0,37.9-17,37.9-37.9v-10.4c0-13.7,5.4-26.8,15.2-36.9
			c14.8-15.2,22.9-35.3,22.9-56.5C337.1,59.2,328.5,38.7,313,23.4z M281.1,184.9c0,11-9,20-20,20h-10.2c-11,0-20-9-20-20v-1.4h50.3
			L281.1,184.9L281.1,184.9z M301.4,125.2c-10.9,11.2-17.7,25.3-19.7,40.4h-16.8v-51.5l26.4-26.4c3.5-3.5,3.5-9.1,0-12.6
			c-3.5-3.5-9.1-3.5-12.6,0L256,97.8l-22.7-22.7c-3.5-3.5-9.1-3.5-12.6,0c-3.5,3.5-3.5,9.1,0,12.6l26.4,26.4v51.5h-16.8
			c-1.9-15-8.8-29.2-19.7-40.4c-11.3-11.6-17.6-27-17.8-43.2c-0.5-34.9,27.5-63.6,62.3-64.1c0.3,0,0.6,0,0.9,0
			c16.7,0,32.5,6.4,44.4,18.2c12.2,12,18.8,28,18.8,45C319.3,97.7,312.9,113.3,301.4,125.2z"/>
	</g>
</g>
<g>
	<g>
		<path d="M171.1,225.3c-3.5-3.5-9.1-3.5-12.6,0L105,278.9c-3.5,3.5-3.5,9.1,0,12.6c1.7,1.7,4,2.6,6.3,2.6s4.6-0.9,6.3-2.6
			l53.6-53.6C174.6,234.5,174.6,228.8,171.1,225.3z"/>
	</g>
</g>
<g>
	<g>
		<path d="M407,278.9l-53.6-53.6c-3.5-3.5-9.1-3.5-12.6,0c-3.5,3.5-3.5,9.1,0,12.6l53.6,53.6c1.7,1.7,4,2.6,6.3,2.6s4.6-0.9,6.3-2.6
			C410.5,288,410.5,282.4,407,278.9z"/>
	</g>
</g>
<g>
	<g>
		<path d="M256,244c-4.9,0-8.9,4-8.9,8.9V287c0,4.9,4,8.9,8.9,8.9c4.9,0,8.9-4,8.9-8.9v-34.1C264.9,248,260.9,244,256,244z"/>
	</g>
</g>
<g>
	<g>
		<circle cx="409.5" cy="344.2" r="8.9"/>
	</g>
</g>
<g>
	<g>
		<circle cx="442.3" cy="344.2" r="8.9"/>
	</g>
</g>
<g>
	<g>
		<path d="M289.4,411.1c14.6-10.5,24.1-27.5,24.1-46.8c0-31.7-25.8-57.6-57.6-57.6s-57.6,25.8-57.6,57.6c0,19.3,9.5,36.4,24.2,46.8
			c-28.7,12.8-48.7,41.6-48.7,75c0,4.9,4,8.9,8.9,8.9s8.9-4,8.9-8.9c0-35.4,28.8-64.2,64.2-64.2s64.2,28.8,64.2,64.2
			c0,4.9,4,8.9,8.9,8.9s8.9-4,8.9-8.9C338.1,452.7,318.1,423.9,289.4,411.1z M256,403.9c-21.9,0-39.7-17.8-39.7-39.7
			s17.8-39.7,39.7-39.7c21.9,0,39.7,17.8,39.7,39.7C295.7,386.1,277.9,403.9,256,403.9z"/>
	</g>
</g>
<g>
	<g>
		<circle cx="239.6" cy="344.2" r="8.9"/>
	</g>
</g>
<g>
	<g>
		<circle cx="272.4" cy="344.2" r="8.9"/>
	</g>
</g>
<g>
	<g>
		<path d="M115.5,411.1c14.6-10.5,24.2-27.6,24.2-46.8c0-31.7-25.8-57.6-57.6-57.6s-57.6,25.8-57.6,57.6c0,19.3,9.5,36.4,24.1,46.8
			C20,423.9,0,452.7,0,486c0,4.9,4,8.9,8.9,8.9s8.9-4,8.9-8.9c0-35.4,28.8-64.2,64.2-64.2s64.2,28.8,64.2,64.2c0,4.9,4,8.9,8.9,8.9
			s8.9-4,8.9-8.9C164.2,452.7,144.2,423.9,115.5,411.1z M82.1,403.9c-21.9,0-39.7-17.8-39.7-39.7s17.8-39.7,39.7-39.7
			c21.9,0,39.7,17.8,39.7,39.7S104,403.9,82.1,403.9z"/>
	</g>
</g>
<g>
	<g>
		<circle cx="102.5" cy="344.2" r="8.9"/>
	</g>
</g>
<g>
	<g>
		<circle cx="69.7" cy="344.2" r="8.9"/>
	</g>
</g>
</svg>
