<?xml version="1.0" encoding="utf-8"?>
<!-- Generator: Adobe Illustrator 21.0.2, SVG Export Plug-In . SVG Version: 6.00 Build 0)  -->
<svg version="1.1" id="Capa_1" xmlns="http://www.w3.org/2000/svg" xmlns:xlink="http://www.w3.org/1999/xlink" x="0px" y="0px"
	 viewBox="0 0 512 512" style="enable-background:new 0 0 512 512;" xml:space="preserve">
<g>
	<path d="M458.3,497.4l-23.1-23.1V175.7l-4.2-4.2L392.5,133V0H51.2v443.7h42.7v42.7h329.3l23.1,23.1c1.7,1.7,3.8,2.5,6,2.5
		s4.4-0.8,6-2.5C461.6,506.2,461.6,500.8,458.3,497.4z M406.1,170.7h-98.9V71.8l85.3,85.3L406.1,170.7z M68.3,426.7V17.1h307.2v98.9
		l-69-69l-4.2-4.2H93.9v384H68.3z M110.9,469.3v-25.6v-384h179.2v128h128v269.5L354,393.1c14.8-17.6,23.9-40.3,23.9-65
		c0-55.7-45.3-100.9-100.9-100.9S176,272.5,176,328.1s45.3,100.9,100.9,100.9c24.8,0,47.4-9,65-23.9l64.1,64.1H110.9z M276.9,412
		c-46.2,0-83.9-37.6-83.9-83.9s37.6-83.9,83.9-83.9s83.9,37.6,83.9,83.9S323.2,412,276.9,412z"/>
	<path d="M227.2,307.2h51.2c4.7,0,8.5-3.8,8.5-8.5c0-4.7-3.8-8.5-8.5-8.5h-51.2c-4.7,0-8.5,3.8-8.5,8.5
		C218.7,303.4,222.5,307.2,227.2,307.2z"/>
	<path d="M329.6,341.3H227.2c-4.7,0-8.5,3.8-8.5,8.5c0,4.7,3.8,8.5,8.5,8.5h102.4c4.7,0,8.5-3.8,8.5-8.5
		C338.1,345.1,334.3,341.3,329.6,341.3z"/>
</g>
</svg>
