<?xml version="1.0" encoding="utf-8"?>
<!-- Generator: Adobe Illustrator 21.0.2, SVG Export Plug-In . SVG Version: 6.00 Build 0)  -->
<svg version="1.1" id="Capa_1" xmlns="http://www.w3.org/2000/svg" xmlns:xlink="http://www.w3.org/1999/xlink" x="0px" y="0px"
	 viewBox="0 0 512 512" style="enable-background:new 0 0 512 512;" xml:space="preserve">
<g>
	<path d="M256,0C114.8,0,0,114.8,0,256s114.8,256,256,256s256-114.8,256-256S397.2,0,256,0z M256,488.7
		C127.7,488.7,23.3,384.3,23.3,256S127.7,23.3,256,23.3S488.7,127.7,488.7,256S384.3,488.7,256,488.7z"/>
	<path d="M256,45.4C139.9,45.4,45.4,139.9,45.4,256S139.9,466.6,256,466.6S466.6,372.1,466.6,256S372.1,45.4,256,45.4z M256,459.6
		c-112.3,0-203.6-91.4-203.6-203.6S143.7,52.4,256,52.4S459.6,143.7,459.6,256S368.3,459.6,256,459.6z"/>
	<polygon points="158.5,177.8 242,177.8 242,193.6 158.5,193.6 158.5,221.6 242,221.6 242,348.2 225.7,348.2 225.7,376.1 
		286.3,376.1 286.3,348.2 270,348.2 270,221.6 353.5,221.6 353.5,193.6 270,193.6 270,177.8 353.5,177.8 353.5,149.9 158.5,149.9 	
		"/>
</g>
</svg>
