<?xml version="1.0" encoding="utf-8"?>
<!-- Generator: Adobe Illustrator 21.0.2, SVG Export Plug-In . SVG Version: 6.00 Build 0)  -->
<svg version="1.1" id="Layer_1" xmlns="http://www.w3.org/2000/svg" xmlns:xlink="http://www.w3.org/1999/xlink" x="0px" y="0px"
	 viewBox="0 0 512 477.9" style="enable-background:new 0 0 512 477.9;" xml:space="preserve">
<g>
	<g>
		<path d="M324.3,426.7H187.7c-23.9,0-42.7,18.8-42.7,42.7c0,5.1,3.4,8.5,8.5,8.5h204.8c5.1,0,8.5-3.4,8.5-8.5
			C366.9,445.4,348.2,426.7,324.3,426.7z M163.8,460.8c3.4-10.2,12.8-17.1,23.9-17.1h137.4c11.1,0,20.5,6.8,23.9,17.1H163.8z"/>
	</g>
</g>
<g>
	<g>
		<path d="M324.3,433.5l-17.1-68.3c-0.9-4.3-4.3-6.8-8.5-6.8h-85.3c-4.3,0-7.7,3.4-8.5,6.8l-17.1,68.3c0,2.6,0,5.1,1.7,6.8
			c1.7,2.6,4.3,3.4,6.8,3.4h119.5c2.6,0,5.1-0.9,6.8-2.6C324.3,438.6,325.1,436.1,324.3,433.5z M207.4,426.7l12.8-51.2h71.7
			l12.8,51.2H207.4z"/>
	</g>
</g>
<g>
	<g>
		<path d="M473.6,0H38.4C17.1,0,0,17.1,0,38.4v260.3c0,5.1,3.4,8.5,8.5,8.5h494.9c5.1,0,8.5-3.4,8.5-8.5V38.4
			C512,17.1,494.9,0,473.6,0z M494.9,290.1H17.1V38.4c0-11.9,9.4-21.3,21.3-21.3h435.2c11.9,0,21.3,9.4,21.3,21.3V290.1z"/>
	</g>
</g>
<g>
	<g>
		<path d="M503.5,290.1H8.5c-5.1,0-8.5,3.4-8.5,8.5v38.4c0,21.3,17.1,38.4,38.4,38.4h435.2c21.3,0,38.4-17.1,38.4-38.4v-38.4
			C512,293.5,508.6,290.1,503.5,290.1z M494.9,337.1c0,11.9-9.4,21.3-21.3,21.3H38.4c-11.9,0-21.3-9.4-21.3-21.3v-29.9h477.9
			L494.9,337.1L494.9,337.1z"/>
	</g>
</g>
<g>
	<g>
		<path d="M290.1,230.4c-5.1,0-8.5,3.4-8.5,8.5v25.6c0,5.1,3.4,8.5,8.5,8.5s8.5-3.4,8.5-8.5v-25.6
			C298.7,233.8,295.3,230.4,290.1,230.4z"/>
	</g>
</g>
<g>
	<g>
		<path d="M324.3,196.3c-5.1,0-8.5,3.4-8.5,8.5v59.7c0,5.1,3.4,8.5,8.5,8.5s8.5-3.4,8.5-8.5v-59.7
			C332.8,199.7,329.4,196.3,324.3,196.3z"/>
	</g>
</g>
<g>
	<g>
		<path d="M358.4,213.3c-5.1,0-8.5,3.4-8.5,8.5v42.7c0,5.1,3.4,8.5,8.5,8.5s8.5-3.4,8.5-8.5v-42.7
			C366.9,216.7,363.5,213.3,358.4,213.3z"/>
	</g>
</g>
<g>
	<g>
		<path d="M392.5,153.6c-5.1,0-8.5,3.4-8.5,8.5v102.4c0,5.1,3.4,8.5,8.5,8.5s8.5-3.4,8.5-8.5V162.1
			C401.1,157,397.7,153.6,392.5,153.6z"/>
	</g>
</g>
<g>
	<g>
		<path d="M426.7,187.7c-5.1,0-8.5,3.4-8.5,8.5v68.3c0,5.1,3.4,8.5,8.5,8.5s8.5-3.4,8.5-8.5v-68.3
			C435.2,191.1,431.8,187.7,426.7,187.7z"/>
	</g>
</g>
<g>
	<g>
		<path d="M149.3,51.2c-53.8,0-98.1,44.4-98.1,98.1s44.4,98.1,98.1,98.1s98.1-44.4,98.1-98.1C247.5,95.6,203.1,51.2,149.3,51.2z
			 M149.3,230.4c-44.4,0-81.1-36.7-81.1-81.1c0-44.4,36.7-81.1,81.1-81.1c44.4,0,81.1,36.7,81.1,81.1
			C230.4,193.7,193.7,230.4,149.3,230.4z"/>
	</g>
</g>
<g>
	<g>
		<path d="M219.3,80.2c-19.6-19.6-46.9-29.9-74.2-29c-2.6,0-4.3,0.9-6,2.6s-2.6,3.4-2.6,6v93.9c0,4.3,3.4,8.5,8.5,8.5h93.9
			c1.7,0,4.3-0.9,6.8-1.7c1.7-1.7,2.6-3.4,2.6-6C249.2,126.3,238.9,99.8,219.3,80.2z M153.6,145.1V68.3c20.5,0.9,38.4,9.4,52.9,23.9
			c14.5,14.5,23,32.4,23.9,52.9H153.6z"/>
	</g>
</g>
<g>
	<g>
		<path d="M214.2,210.8L151,147.6c-3.4-3.4-8.5-3.4-11.9,0s-3.4,8.5,0,11.9l63.1,63.1c1.7,1.7,3.4,2.6,6,2.6c2.6,0,4.3-0.9,6-2.6
			C217.6,219.3,217.6,214.2,214.2,210.8z"/>
	</g>
</g>
<g>
	<g>
		<path d="M384,85.3h-68.3c-5.1,0-8.5,3.4-8.5,8.5c0,5.1,3.4,8.5,8.5,8.5H384c5.1,0,8.5-3.4,8.5-8.5S389.1,85.3,384,85.3z"/>
	</g>
</g>
<g>
	<g>
		<path d="M433.5,87.9c-0.9,0-0.9-0.9-1.7-0.9s-0.9-0.9-1.7-0.9c-0.9-0.9-0.9-0.9-1.7-0.9c-2.6,0-6,0.9-7.7,2.6s-2.6,3.4-2.6,6
			c0,1.7,0.9,2.6,0.9,3.4c0,0.9,0.9,1.7,1.7,2.6c1.7,1.7,3.4,2.6,6,2.6c0.9,0,0.9,0,1.7,0c0.9-0.9,0.9-0.9,1.7-0.9
			c0.9,0,1.7-0.9,1.7-0.9c0.9,0,1.7-0.9,1.7-0.9c0.9-0.9,0.9-1.7,1.7-2.6s0.9-2.6,0.9-3.4C436.1,91.3,435.2,89.6,433.5,87.9z"/>
	</g>
</g>
<g>
	<g>
		<path d="M426.7,42.7h-25.6c-5.1,0-8.5,3.4-8.5,8.5s3.4,8.5,8.5,8.5h25.6c5.1,0,8.5-3.4,8.5-8.5S431.8,42.7,426.7,42.7z"/>
	</g>
</g>
<g>
	<g>
		<path d="M332.8,42.7h-17.1c-5.1,0-8.5,3.4-8.5,8.5s3.4,8.5,8.5,8.5h17.1c5.1,0,8.5-3.4,8.5-8.5S337.9,42.7,332.8,42.7z"/>
	</g>
</g>
<g>
	<g>
		<path d="M373.8,45.2c-0.9,0-0.9-0.9-1.7-0.9s-0.9-0.9-1.7-0.9c-0.9-0.9-0.9-0.9-1.7-0.9c-1.7,0-2.6,0-3.4,0
			c-0.9,0.9-0.9,0.9-1.7,0.9c-0.9,0-0.9,0.9-1.7,0.9l-0.9,0.9c-0.9,0.9-1.7,1.7-1.7,2.6c-0.9,0.9-0.9,2.6-0.9,3.4
			c0,2.6,0.9,4.3,2.6,6l0.9,0.9c0.9,0,0.9,0.9,1.7,0.9c0.9,0.9,0.9,0.9,1.7,0.9s0.9,0,1.7,0s0.9,0,0.9,0c0.9-0.9,0.9-0.9,1.7-0.9
			s1.7-0.9,1.7-0.9c0.9,0,1.7-0.9,1.7-0.9c1.7-1.7,2.6-3.4,2.6-6c0-0.9,0-2.6,0-3.4C375.5,46.9,374.6,46.1,373.8,45.2z"/>
	</g>
</g>
</svg>
