<?xml version="1.0" encoding="utf-8"?>
<!-- Generator: Adobe Illustrator 21.0.2, SVG Export Plug-In . SVG Version: 6.00 Build 0)  -->
<svg version="1.1" id="Capa_1" xmlns="http://www.w3.org/2000/svg" xmlns:xlink="http://www.w3.org/1999/xlink" x="0px" y="0px"
	 viewBox="0 0 512 512" style="enable-background:new 0 0 512 512;" xml:space="preserve">
<g>
	<path d="M453.3,471.7H432v-80.6l0,0v-87.7l0,0v-85.3c0-10.7-9.5-20.1-20.1-20.1h-41.5c-9.5-43.9-47.4-77-96-85.3V97.2h67.6
		c10.7,0,20.1-8.3,20.1-20.1V33.2c0-10.7-9.5-20.1-20.1-20.1h-68.7c-2.4-7.1-9.5-13-19-13c-10.7,0-20.1,9.5-20.1,20.1v92.4
		c-48.6,7.1-87.7,41.5-96,85.3H96.6c-10.7,0-20.1,9.5-20.1,20.1v85.3l0,0v87.7l0,0v80.6h-19c-10.7,0-20.1,8.3-20.1,20.1
		S46.8,512,57.5,512h397c10.7,0,20.1-9.5,20.1-20.1C474.7,481.2,465.2,471.7,453.3,471.7z M223.4,238.2h64v45h-64V238.2z
		 M223.4,411.3h64v45h-64V411.3z M326.5,411.3h65.2v45h-65.2V411.3z M392.9,371h-66.4v-48.6h65.2V371H392.9z M287.4,322.4V371h-64
		v-48.6H287.4z M184.3,371h-65.2v-48.6h65.2V371z M117.9,411.3h66.4v45h-65.2v-45H117.9z M392.9,283.3h-66.4v-45h65.2v45H392.9z
		 M117.9,238.2h66.4v45h-65.2v-45L117.9,238.2L117.9,238.2z"/>
</g>
</svg>
